<?xml version="1.0" encoding="us-ascii" standalone="no"?><svg xmlns="http://www.w3.org/2000/svg" xmlns:xlink="http://www.w3.org/1999/xlink" contentStyleType="text/css" height="907px" preserveAspectRatio="none" style="width:1264px;height:907px;background:#FFFFFF;" version="1.1" viewBox="0 0 1264 907" width="1264px" zoomAndPan="magnify"><defs/><g><!--class PlotProperties--><g id="elem_PlotProperties"><rect codeLine="2" fill="#F1F1F1" height="113.1875" id="PlotProperties" rx="2.5" ry="2.5" style="stroke:#181818;stroke-width:0.5;" width="130" x="472" y="39.5"/><ellipse cx="487" cy="55.5" fill="#ADD1B2" rx="11" ry="11" style="stroke:#181818;stroke-width:1.0;"/><path d="M489.9844,61.1406 Q489.4063,61.4375 488.7656,61.5781 Q488.125,61.7344 487.4219,61.7344 Q484.9063,61.7344 483.5781,60.0938 Q482.2656,58.4375 482.2656,55.3125 Q482.2656,52.1719 483.5781,50.5313 Q484.9063,48.875 487.4219,48.875 Q488.125,48.875 488.7656,49.0313 Q489.4219,49.1719 489.9844,49.4688 L489.9844,52.1875 Q489.3438,51.6094 488.75,51.3438 Q488.1563,51.0781 487.5313,51.0781 Q486.1875,51.0781 485.5,52.1406 Q484.8125,53.2031 484.8125,55.3125 Q484.8125,57.4063 485.5,58.4844 Q486.1875,59.5469 487.5313,59.5469 Q488.1563,59.5469 488.75,59.2813 Q489.3438,59 489.9844,58.4219 L489.9844,61.1406 Z " fill="#000000"/><text fill="#000000" font-family="sans-serif" font-size="14" lengthAdjust="spacing" textLength="98" x="501" y="60.3467">PlotProperties</text><line style="stroke:#181818;stroke-width:0.5;" x1="473" x2="601" y1="71.5" y2="71.5"/><text fill="#000000" font-family="sans-serif" font-size="14" lengthAdjust="spacing" textLength="42" x="478" y="88.4951">figure</text><text fill="#000000" font-family="sans-serif" font-size="14" lengthAdjust="spacing" textLength="49" x="478" y="104.792">legend</text><text fill="#000000" font-family="sans-serif" font-size="14" lengthAdjust="spacing" textLength="71" x="478" y="121.0889">zero_lines</text><line style="stroke:#181818;stroke-width:0.5;" x1="473" x2="601" y1="128.3906" y2="128.3906"/><text fill="#000000" font-family="sans-serif" font-size="14" lengthAdjust="spacing" textLength="96" x="478" y="145.3857">apply(plotter)</text></g><!--class SinglePlotProperties--><g id="elem_SinglePlotProperties"><rect codeLine="9" fill="#F1F1F1" height="113.1875" id="SinglePlotProperties" rx="2.5" ry="2.5" style="stroke:#181818;stroke-width:0.5;" width="174" x="246" y="367.5"/><ellipse cx="261" cy="383.5" fill="#ADD1B2" rx="11" ry="11" style="stroke:#181818;stroke-width:1.0;"/><path d="M263.9844,389.1406 Q263.4063,389.4375 262.7656,389.5781 Q262.125,389.7344 261.4219,389.7344 Q258.9063,389.7344 257.5781,388.0938 Q256.2656,386.4375 256.2656,383.3125 Q256.2656,380.1719 257.5781,378.5313 Q258.9063,376.875 261.4219,376.875 Q262.125,376.875 262.7656,377.0313 Q263.4219,377.1719 263.9844,377.4688 L263.9844,380.1875 Q263.3438,379.6094 262.75,379.3438 Q262.1563,379.0781 261.5313,379.0781 Q260.1875,379.0781 259.5,380.1406 Q258.8125,381.2031 258.8125,383.3125 Q258.8125,385.4063 259.5,386.4844 Q260.1875,387.5469 261.5313,387.5469 Q262.1563,387.5469 262.75,387.2813 Q263.3438,387 263.9844,386.4219 L263.9844,389.1406 Z " fill="#000000"/><text fill="#000000" font-family="sans-serif" font-size="14" lengthAdjust="spacing" textLength="142" x="275" y="388.3467">SinglePlotProperties</text><line style="stroke:#181818;stroke-width:0.5;" x1="247" x2="419" y1="399.5" y2="399.5"/><text fill="#000000" font-family="sans-serif" font-size="14" lengthAdjust="spacing" textLength="33" x="252" y="416.4951">axes</text><text fill="#000000" font-family="sans-serif" font-size="14" lengthAdjust="spacing" textLength="57" x="252" y="432.792">drawing</text><text fill="#000000" font-family="sans-serif" font-size="14" lengthAdjust="spacing" textLength="28" x="252" y="449.0889">grid</text><line style="stroke:#181818;stroke-width:0.5;" x1="247" x2="419" y1="456.3906" y2="456.3906"/><text fill="#000000" font-family="sans-serif" font-size="14" lengthAdjust="spacing" textLength="96" x="252" y="473.3857">apply(plotter)</text></g><!--class MultiPlotProperties--><g id="elem_MultiPlotProperties"><rect codeLine="16" fill="#F1F1F1" height="145.7813" id="MultiPlotProperties" rx="2.5" ry="2.5" style="stroke:#181818;stroke-width:0.5;" width="164" x="455" y="351"/><ellipse cx="470" cy="367" fill="#ADD1B2" rx="11" ry="11" style="stroke:#181818;stroke-width:1.0;"/><path d="M472.9844,372.6406 Q472.4063,372.9375 471.7656,373.0781 Q471.125,373.2344 470.4219,373.2344 Q467.9063,373.2344 466.5781,371.5938 Q465.2656,369.9375 465.2656,366.8125 Q465.2656,363.6719 466.5781,362.0313 Q467.9063,360.375 470.4219,360.375 Q471.125,360.375 471.7656,360.5313 Q472.4219,360.6719 472.9844,360.9688 L472.9844,363.6875 Q472.3438,363.1094 471.75,362.8438 Q471.1563,362.5781 470.5313,362.5781 Q469.1875,362.5781 468.5,363.6406 Q467.8125,364.7031 467.8125,366.8125 Q467.8125,368.9063 468.5,369.9844 Q469.1875,371.0469 470.5313,371.0469 Q471.1563,371.0469 471.75,370.7813 Q472.3438,370.5 472.9844,369.9219 L472.9844,372.6406 Z " fill="#000000"/><text fill="#000000" font-family="sans-serif" font-size="14" lengthAdjust="spacing" textLength="132" x="484" y="371.8467">MultiPlotProperties</text><line style="stroke:#181818;stroke-width:0.5;" x1="456" x2="618" y1="383" y2="383"/><text fill="#000000" font-family="sans-serif" font-size="14" lengthAdjust="spacing" textLength="33" x="461" y="399.9951">axes</text><text fill="#000000" font-family="sans-serif" font-size="14" lengthAdjust="spacing" textLength="97" x="461" y="416.292">drawings : list</text><text fill="#000000" font-family="sans-serif" font-size="14" lengthAdjust="spacing" textLength="28" x="461" y="432.5889">grid</text><line style="stroke:#181818;stroke-width:0.5;" x1="456" x2="618" y1="439.8906" y2="439.8906"/><text fill="#000000" font-family="sans-serif" font-size="14" lengthAdjust="spacing" textLength="101" x="461" y="456.8857">add_drawing()</text><text fill="#000000" font-family="sans-serif" font-size="14" lengthAdjust="spacing" textLength="96" x="461" y="473.1826">apply(plotter)</text><text fill="#000000" font-family="sans-serif" font-size="14" lengthAdjust="spacing" textLength="110" x="461" y="489.4795">from_dict(dict_)</text></g><!--class CompositePlotProperties--><g id="elem_CompositePlotProperties"><rect codeLine="25" fill="#F1F1F1" height="80.5938" id="CompositePlotProperties" rx="2.5" ry="2.5" style="stroke:#181818;stroke-width:0.5;" width="206" x="654" y="383.5"/><ellipse cx="669" cy="399.5" fill="#ADD1B2" rx="11" ry="11" style="stroke:#181818;stroke-width:1.0;"/><path d="M671.9844,405.1406 Q671.4063,405.4375 670.7656,405.5781 Q670.125,405.7344 669.4219,405.7344 Q666.9063,405.7344 665.5781,404.0938 Q664.2656,402.4375 664.2656,399.3125 Q664.2656,396.1719 665.5781,394.5313 Q666.9063,392.875 669.4219,392.875 Q670.125,392.875 670.7656,393.0313 Q671.4219,393.1719 671.9844,393.4688 L671.9844,396.1875 Q671.3438,395.6094 670.75,395.3438 Q670.1563,395.0781 669.5313,395.0781 Q668.1875,395.0781 667.5,396.1406 Q666.8125,397.2031 666.8125,399.3125 Q666.8125,401.4063 667.5,402.4844 Q668.1875,403.5469 669.5313,403.5469 Q670.1563,403.5469 670.75,403.2813 Q671.3438,403 671.9844,402.4219 L671.9844,405.1406 Z " fill="#000000"/><text fill="#000000" font-family="sans-serif" font-size="14" lengthAdjust="spacing" textLength="174" x="683" y="404.3467">CompositePlotProperties</text><line style="stroke:#181818;stroke-width:0.5;" x1="655" x2="859" y1="415.5" y2="415.5"/><text fill="#000000" font-family="sans-serif" font-size="14" lengthAdjust="spacing" textLength="33" x="660" y="432.4951">axes</text><line style="stroke:#181818;stroke-width:0.5;" x1="655" x2="859" y1="439.7969" y2="439.7969"/><text fill="#000000" font-family="sans-serif" font-size="14" lengthAdjust="spacing" textLength="96" x="660" y="456.792">apply(plotter)</text></g><!--class SinglePlot1DProperties--><g id="elem_SinglePlot1DProperties"><rect codeLine="30" fill="#F1F1F1" height="64.2969" id="SinglePlot1DProperties" rx="2.5" ry="2.5" style="stroke:#181818;stroke-width:0.5;" width="194" x="7" y="687.5"/><ellipse cx="22" cy="703.5" fill="#ADD1B2" rx="11" ry="11" style="stroke:#181818;stroke-width:1.0;"/><path d="M24.9844,709.1406 Q24.4063,709.4375 23.7656,709.5781 Q23.125,709.7344 22.4219,709.7344 Q19.9063,709.7344 18.5781,708.0938 Q17.2656,706.4375 17.2656,703.3125 Q17.2656,700.1719 18.5781,698.5313 Q19.9063,696.875 22.4219,696.875 Q23.125,696.875 23.7656,697.0313 Q24.4219,697.1719 24.9844,697.4688 L24.9844,700.1875 Q24.3438,699.6094 23.75,699.3438 Q23.1563,699.0781 22.5313,699.0781 Q21.1875,699.0781 20.5,700.1406 Q19.8125,701.2031 19.8125,703.3125 Q19.8125,705.4063 20.5,706.4844 Q21.1875,707.5469 22.5313,707.5469 Q23.1563,707.5469 23.75,707.2813 Q24.3438,707 24.9844,706.4219 L24.9844,709.1406 Z " fill="#000000"/><text fill="#000000" font-family="sans-serif" font-size="14" lengthAdjust="spacing" textLength="162" x="36" y="708.3467">SinglePlot1DProperties</text><line style="stroke:#181818;stroke-width:0.5;" x1="8" x2="200" y1="719.5" y2="719.5"/><text fill="#000000" font-family="sans-serif" font-size="14" lengthAdjust="spacing" textLength="57" x="13" y="736.4951">drawing</text><line style="stroke:#181818;stroke-width:0.5;" x1="8" x2="200" y1="743.7969" y2="743.7969"/></g><!--class SinglePlot2DProperties--><g id="elem_SinglePlot2DProperties"><rect codeLine="34" fill="#F1F1F1" height="113.1875" id="SinglePlot2DProperties" rx="2.5" ry="2.5" style="stroke:#181818;stroke-width:0.5;" width="194" x="236" y="663"/><ellipse cx="251" cy="679" fill="#ADD1B2" rx="11" ry="11" style="stroke:#181818;stroke-width:1.0;"/><path d="M253.9844,684.6406 Q253.4063,684.9375 252.7656,685.0781 Q252.125,685.2344 251.4219,685.2344 Q248.9063,685.2344 247.5781,683.5938 Q246.2656,681.9375 246.2656,678.8125 Q246.2656,675.6719 247.5781,674.0313 Q248.9063,672.375 251.4219,672.375 Q252.125,672.375 252.7656,672.5313 Q253.4219,672.6719 253.9844,672.9688 L253.9844,675.6875 Q253.3438,675.1094 252.75,674.8438 Q252.1563,674.5781 251.5313,674.5781 Q250.1875,674.5781 249.5,675.6406 Q248.8125,676.7031 248.8125,678.8125 Q248.8125,680.9063 249.5,681.9844 Q250.1875,683.0469 251.5313,683.0469 Q252.1563,683.0469 252.75,682.7813 Q253.3438,682.5 253.9844,681.9219 L253.9844,684.6406 Z " fill="#000000"/><text fill="#000000" font-family="sans-serif" font-size="14" lengthAdjust="spacing" textLength="162" x="265" y="683.8467">SinglePlot2DProperties</text><line style="stroke:#181818;stroke-width:0.5;" x1="237" x2="429" y1="695" y2="695"/><text fill="#000000" font-family="sans-serif" font-size="14" lengthAdjust="spacing" textLength="60" x="242" y="711.9951">colorbar</text><text fill="#000000" font-family="sans-serif" font-size="14" lengthAdjust="spacing" textLength="68" x="242" y="728.292">colormap</text><text fill="#000000" font-family="sans-serif" font-size="14" lengthAdjust="spacing" textLength="57" x="242" y="744.5889">drawing</text><line style="stroke:#181818;stroke-width:0.5;" x1="237" x2="429" y1="751.8906" y2="751.8906"/><text fill="#000000" font-family="sans-serif" font-size="14" lengthAdjust="spacing" textLength="96" x="242" y="768.8857">apply(plotter)</text></g><!--class SinglePlot2DStackedProperties--><g id="elem_SinglePlot2DStackedProperties"><rect codeLine="41" fill="#F1F1F1" height="64.2969" id="SinglePlot2DStackedProperties" rx="2.5" ry="2.5" style="stroke:#181818;stroke-width:0.5;" width="251" x="431.5" y="836"/><ellipse cx="446.5" cy="852" fill="#ADD1B2" rx="11" ry="11" style="stroke:#181818;stroke-width:1.0;"/><path d="M449.4844,857.6406 Q448.9063,857.9375 448.2656,858.0781 Q447.625,858.2344 446.9219,858.2344 Q444.4063,858.2344 443.0781,856.5938 Q441.7656,854.9375 441.7656,851.8125 Q441.7656,848.6719 443.0781,847.0313 Q444.4063,845.375 446.9219,845.375 Q447.625,845.375 448.2656,845.5313 Q448.9219,845.6719 449.4844,845.9688 L449.4844,848.6875 Q448.8438,848.1094 448.25,847.8438 Q447.6563,847.5781 447.0313,847.5781 Q445.6875,847.5781 445,848.6406 Q444.3125,849.7031 444.3125,851.8125 Q444.3125,853.9063 445,854.9844 Q445.6875,856.0469 447.0313,856.0469 Q447.6563,856.0469 448.25,855.7813 Q448.8438,855.5 449.4844,854.9219 L449.4844,857.6406 Z " fill="#000000"/><text fill="#000000" font-family="sans-serif" font-size="14" lengthAdjust="spacing" textLength="219" x="460.5" y="856.8467">SinglePlot2DStackedProperties</text><line style="stroke:#181818;stroke-width:0.5;" x1="432.5" x2="681.5" y1="868" y2="868"/><text fill="#000000" font-family="sans-serif" font-size="14" lengthAdjust="spacing" textLength="57" x="437.5" y="884.9951">drawing</text><line style="stroke:#181818;stroke-width:0.5;" x1="432.5" x2="681.5" y1="892.2969" y2="892.2969"/></g><!--class MultiPlot1DProperties--><g id="elem_MultiPlot1DProperties"><rect codeLine="45" fill="#F1F1F1" height="113.1875" id="MultiPlot1DProperties" rx="2.5" ry="2.5" style="stroke:#181818;stroke-width:0.5;" width="184" x="465" y="663"/><ellipse cx="480" cy="679" fill="#ADD1B2" rx="11" ry="11" style="stroke:#181818;stroke-width:1.0;"/><path d="M482.9844,684.6406 Q482.4063,684.9375 481.7656,685.0781 Q481.125,685.2344 480.4219,685.2344 Q477.9063,685.2344 476.5781,683.5938 Q475.2656,681.9375 475.2656,678.8125 Q475.2656,675.6719 476.5781,674.0313 Q477.9063,672.375 480.4219,672.375 Q481.125,672.375 481.7656,672.5313 Q482.4219,672.6719 482.9844,672.9688 L482.9844,675.6875 Q482.3438,675.1094 481.75,674.8438 Q481.1563,674.5781 480.5313,674.5781 Q479.1875,674.5781 478.5,675.6406 Q477.8125,676.7031 477.8125,678.8125 Q477.8125,680.9063 478.5,681.9844 Q479.1875,683.0469 480.5313,683.0469 Q481.1563,683.0469 481.75,682.7813 Q482.3438,682.5 482.9844,681.9219 L482.9844,684.6406 Z " fill="#000000"/><text fill="#000000" font-family="sans-serif" font-size="14" lengthAdjust="spacing" textLength="152" x="494" y="683.8467">MultiPlot1DProperties</text><line style="stroke:#181818;stroke-width:0.5;" x1="466" x2="648" y1="695" y2="695"/><text fill="#000000" font-family="sans-serif" font-size="14" lengthAdjust="spacing" textLength="153" x="471" y="711.9951">colormap : NoneType</text><line style="stroke:#181818;stroke-width:0.5;" x1="466" x2="648" y1="719.2969" y2="719.2969"/><text fill="#000000" font-family="sans-serif" font-size="14" lengthAdjust="spacing" textLength="101" x="471" y="736.292">add_drawing()</text><text fill="#000000" font-family="sans-serif" font-size="14" lengthAdjust="spacing" textLength="96" x="471" y="752.5889">apply(plotter)</text><text fill="#000000" font-family="sans-serif" font-size="14" lengthAdjust="spacing" textLength="110" x="471" y="768.8857">from_dict(dict_)</text></g><!--class AxesProperties--><g id="elem_AxesProperties"><rect codeLine="52" fill="#F1F1F1" height="357.6406" id="AxesProperties" rx="2.5" ry="2.5" style="stroke:#181818;stroke-width:0.5;" width="172" x="39" y="245"/><ellipse cx="69.3" cy="261" fill="#ADD1B2" rx="11" ry="11" style="stroke:#181818;stroke-width:1.0;"/><path d="M72.2844,266.6406 Q71.7063,266.9375 71.0656,267.0781 Q70.425,267.2344 69.7219,267.2344 Q67.2063,267.2344 65.8781,265.5938 Q64.5656,263.9375 64.5656,260.8125 Q64.5656,257.6719 65.8781,256.0313 Q67.2063,254.375 69.7219,254.375 Q70.425,254.375 71.0656,254.5313 Q71.7219,254.6719 72.2844,254.9688 L72.2844,257.6875 Q71.6438,257.1094 71.05,256.8438 Q70.4563,256.5781 69.8313,256.5781 Q68.4875,256.5781 67.8,257.6406 Q67.1125,258.7031 67.1125,260.8125 Q67.1125,262.9063 67.8,263.9844 Q68.4875,265.0469 69.8313,265.0469 Q70.4563,265.0469 71.05,264.7813 Q71.6438,264.5 72.2844,263.9219 L72.2844,266.6406 Z " fill="#000000"/><text fill="#000000" font-family="sans-serif" font-size="14" lengthAdjust="spacing" textLength="106" x="86.7" y="265.8467">AxesProperties</text><line style="stroke:#181818;stroke-width:0.5;" x1="40" x2="210" y1="277" y2="277"/><text fill="#000000" font-family="sans-serif" font-size="14" lengthAdjust="spacing" textLength="78" x="45" y="293.9951">aspect : str</text><text fill="#000000" font-family="sans-serif" font-size="14" lengthAdjust="spacing" textLength="152" x="45" y="310.292">facecolor : NoneType</text><text fill="#000000" font-family="sans-serif" font-size="14" lengthAdjust="spacing" textLength="154" x="45" y="326.5889">invert : NoneType, list</text><text fill="#000000" font-family="sans-serif" font-size="14" lengthAdjust="spacing" textLength="97" x="45" y="342.8857">label_fontsize</text><text fill="#000000" font-family="sans-serif" font-size="14" lengthAdjust="spacing" textLength="89" x="45" y="359.1826">position : list</text><text fill="#000000" font-family="sans-serif" font-size="14" lengthAdjust="spacing" textLength="58" x="45" y="375.4795">title : str</text><text fill="#000000" font-family="sans-serif" font-size="14" lengthAdjust="spacing" textLength="74" x="45" y="391.7764">xlabel : str</text><text fill="#000000" font-family="sans-serif" font-size="14" lengthAdjust="spacing" textLength="63" x="45" y="408.0732">xlim : list</text><text fill="#000000" font-family="sans-serif" font-size="14" lengthAdjust="spacing" textLength="76" x="45" y="424.3701">xscale : str</text><text fill="#000000" font-family="sans-serif" font-size="14" lengthAdjust="spacing" textLength="153" x="45" y="440.667">xticklabelangle : float</text><text fill="#000000" font-family="sans-serif" font-size="14" lengthAdjust="spacing" textLength="160" x="45" y="456.9639">xticklabels : NoneType</text><text fill="#000000" font-family="sans-serif" font-size="14" lengthAdjust="spacing" textLength="125" x="45" y="473.2607">xticks : NoneType</text><text fill="#000000" font-family="sans-serif" font-size="14" lengthAdjust="spacing" textLength="74" x="45" y="489.5576">ylabel : str</text><text fill="#000000" font-family="sans-serif" font-size="14" lengthAdjust="spacing" textLength="63" x="45" y="505.8545">ylim : list</text><text fill="#000000" font-family="sans-serif" font-size="14" lengthAdjust="spacing" textLength="76" x="45" y="522.1514">yscale : str</text><text fill="#000000" font-family="sans-serif" font-size="14" lengthAdjust="spacing" textLength="153" x="45" y="538.4482">yticklabelangle : float</text><text fill="#000000" font-family="sans-serif" font-size="14" lengthAdjust="spacing" textLength="160" x="45" y="554.7451">yticklabels : NoneType</text><text fill="#000000" font-family="sans-serif" font-size="14" lengthAdjust="spacing" textLength="125" x="45" y="571.042">yticks : NoneType</text><line style="stroke:#181818;stroke-width:0.5;" x1="40" x2="210" y1="578.3438" y2="578.3438"/><text fill="#000000" font-family="sans-serif" font-size="14" lengthAdjust="spacing" textLength="82" x="45" y="595.3389">apply(axes)</text></g><!--class ColorbarProperties--><g id="elem_ColorbarProperties"><rect codeLine="73" fill="#F1F1F1" height="178.375" id="ColorbarProperties" rx="2.5" ry="2.5" style="stroke:#181818;stroke-width:0.5;" width="166" x="648" y="7"/><ellipse cx="663" cy="23" fill="#ADD1B2" rx="11" ry="11" style="stroke:#181818;stroke-width:1.0;"/><path d="M665.9844,28.6406 Q665.4063,28.9375 664.7656,29.0781 Q664.125,29.2344 663.4219,29.2344 Q660.9063,29.2344 659.5781,27.5938 Q658.2656,25.9375 658.2656,22.8125 Q658.2656,19.6719 659.5781,18.0313 Q660.9063,16.375 663.4219,16.375 Q664.125,16.375 664.7656,16.5313 Q665.4219,16.6719 665.9844,16.9688 L665.9844,19.6875 Q665.3438,19.1094 664.75,18.8438 Q664.1563,18.5781 663.5313,18.5781 Q662.1875,18.5781 661.5,19.6406 Q660.8125,20.7031 660.8125,22.8125 Q660.8125,24.9063 661.5,25.9844 Q662.1875,27.0469 663.5313,27.0469 Q664.1563,27.0469 664.75,26.7813 Q665.3438,26.5 665.9844,25.9219 L665.9844,28.6406 Z " fill="#000000"/><text fill="#000000" font-family="sans-serif" font-size="14" lengthAdjust="spacing" textLength="134" x="677" y="27.8467">ColorbarProperties</text><line style="stroke:#181818;stroke-width:0.5;" x1="649" x2="813" y1="39" y2="39"/><text fill="#000000" font-family="sans-serif" font-size="14" lengthAdjust="spacing" textLength="92" x="654" y="55.9951">aspect : float</text><text fill="#000000" font-family="sans-serif" font-size="14" lengthAdjust="spacing" textLength="79" x="654" y="72.292">format : str</text><text fill="#000000" font-family="sans-serif" font-size="14" lengthAdjust="spacing" textLength="100" x="654" y="88.5889">fraction : float</text><text fill="#000000" font-family="sans-serif" font-size="14" lengthAdjust="spacing" textLength="50" x="654" y="104.8857">kwargs</text><text fill="#000000" font-family="sans-serif" font-size="14" lengthAdjust="spacing" textLength="74" x="654" y="121.1826">label : dict</text><text fill="#000000" font-family="sans-serif" font-size="14" lengthAdjust="spacing" textLength="142" x="654" y="137.4795">location : NoneType</text><text fill="#000000" font-family="sans-serif" font-size="14" lengthAdjust="spacing" textLength="112" x="654" y="153.7764">pad : NoneType</text><line style="stroke:#181818;stroke-width:0.5;" x1="649" x2="813" y1="161.0781" y2="161.0781"/><text fill="#000000" font-family="sans-serif" font-size="14" lengthAdjust="spacing" textLength="109" x="654" y="178.0732">apply(colorbar)</text></g><!--class FigureProperties--><g id="elem_FigureProperties"><rect codeLine="83" fill="#F1F1F1" height="113.1875" id="FigureProperties" rx="2.5" ry="2.5" style="stroke:#181818;stroke-width:0.5;" width="149" x="287.5" y="39.5"/><ellipse cx="302.5" cy="55.5" fill="#ADD1B2" rx="11" ry="11" style="stroke:#181818;stroke-width:1.0;"/><path d="M305.4844,61.1406 Q304.9063,61.4375 304.2656,61.5781 Q303.625,61.7344 302.9219,61.7344 Q300.4063,61.7344 299.0781,60.0938 Q297.7656,58.4375 297.7656,55.3125 Q297.7656,52.1719 299.0781,50.5313 Q300.4063,48.875 302.9219,48.875 Q303.625,48.875 304.2656,49.0313 Q304.9219,49.1719 305.4844,49.4688 L305.4844,52.1875 Q304.8438,51.6094 304.25,51.3438 Q303.6563,51.0781 303.0313,51.0781 Q301.6875,51.0781 301,52.1406 Q300.3125,53.2031 300.3125,55.3125 Q300.3125,57.4063 301,58.4844 Q301.6875,59.5469 303.0313,59.5469 Q303.6563,59.5469 304.25,59.2813 Q304.8438,59 305.4844,58.4219 L305.4844,61.1406 Z " fill="#000000"/><text fill="#000000" font-family="sans-serif" font-size="14" lengthAdjust="spacing" textLength="117" x="316.5" y="60.3467">FigureProperties</text><line style="stroke:#181818;stroke-width:0.5;" x1="288.5" x2="435.5" y1="71.5" y2="71.5"/><text fill="#000000" font-family="sans-serif" font-size="14" lengthAdjust="spacing" textLength="67" x="293.5" y="88.4951">dpi : float</text><text fill="#000000" font-family="sans-serif" font-size="14" lengthAdjust="spacing" textLength="76" x="293.5" y="104.792">size : tuple</text><text fill="#000000" font-family="sans-serif" font-size="14" lengthAdjust="spacing" textLength="58" x="293.5" y="121.0889">title : str</text><line style="stroke:#181818;stroke-width:0.5;" x1="288.5" x2="435.5" y1="128.3906" y2="128.3906"/><text fill="#000000" font-family="sans-serif" font-size="14" lengthAdjust="spacing" textLength="91" x="293.5" y="145.3857">apply(figure)</text></g><!--class GridProperties--><g id="elem_GridProperties"><rect codeLine="89" fill="#F1F1F1" height="129.4844" id="GridProperties" rx="2.5" ry="2.5" style="stroke:#181818;stroke-width:0.5;" width="134" x="891" y="31.5"/><ellipse cx="906" cy="47.5" fill="#ADD1B2" rx="11" ry="11" style="stroke:#181818;stroke-width:1.0;"/><path d="M908.9844,53.1406 Q908.4063,53.4375 907.7656,53.5781 Q907.125,53.7344 906.4219,53.7344 Q903.9063,53.7344 902.5781,52.0938 Q901.2656,50.4375 901.2656,47.3125 Q901.2656,44.1719 902.5781,42.5313 Q903.9063,40.875 906.4219,40.875 Q907.125,40.875 907.7656,41.0313 Q908.4219,41.1719 908.9844,41.4688 L908.9844,44.1875 Q908.3438,43.6094 907.75,43.3438 Q907.1563,43.0781 906.5313,43.0781 Q905.1875,43.0781 904.5,44.1406 Q903.8125,45.2031 903.8125,47.3125 Q903.8125,49.4063 904.5,50.4844 Q905.1875,51.5469 906.5313,51.5469 Q907.1563,51.5469 907.75,51.2813 Q908.3438,51 908.9844,50.4219 L908.9844,53.1406 Z " fill="#000000"/><text fill="#000000" font-family="sans-serif" font-size="14" lengthAdjust="spacing" textLength="102" x="920" y="52.3467">GridProperties</text><line style="stroke:#181818;stroke-width:0.5;" x1="892" x2="1024" y1="63.5" y2="63.5"/><text fill="#000000" font-family="sans-serif" font-size="14" lengthAdjust="spacing" textLength="59" x="897" y="80.4951">axis : str</text><text fill="#000000" font-family="sans-serif" font-size="14" lengthAdjust="spacing" textLength="33" x="897" y="96.792">lines</text><text fill="#000000" font-family="sans-serif" font-size="14" lengthAdjust="spacing" textLength="80" x="897" y="113.0889">show : bool</text><text fill="#000000" font-family="sans-serif" font-size="14" lengthAdjust="spacing" textLength="63" x="897" y="129.3857">ticks : str</text><line style="stroke:#181818;stroke-width:0.5;" x1="892" x2="1024" y1="136.6875" y2="136.6875"/><text fill="#000000" font-family="sans-serif" font-size="14" lengthAdjust="spacing" textLength="82" x="897" y="153.6826">apply(axes)</text></g><!--class LegendProperties--><g id="elem_LegendProperties"><rect codeLine="96" fill="#F1F1F1" height="178.375" id="LegendProperties" rx="2.5" ry="2.5" style="stroke:#181818;stroke-width:0.5;" width="157" x="95.5" y="7"/><ellipse cx="110.5" cy="23" fill="#ADD1B2" rx="11" ry="11" style="stroke:#181818;stroke-width:1.0;"/><path d="M113.4844,28.6406 Q112.9063,28.9375 112.2656,29.0781 Q111.625,29.2344 110.9219,29.2344 Q108.4063,29.2344 107.0781,27.5938 Q105.7656,25.9375 105.7656,22.8125 Q105.7656,19.6719 107.0781,18.0313 Q108.4063,16.375 110.9219,16.375 Q111.625,16.375 112.2656,16.5313 Q112.9219,16.6719 113.4844,16.9688 L113.4844,19.6875 Q112.8438,19.1094 112.25,18.8438 Q111.6563,18.5781 111.0313,18.5781 Q109.6875,18.5781 109,19.6406 Q108.3125,20.7031 108.3125,22.8125 Q108.3125,24.9063 109,25.9844 Q109.6875,27.0469 111.0313,27.0469 Q111.6563,27.0469 112.25,26.7813 Q112.8438,26.5 113.4844,25.9219 L113.4844,28.6406 Z " fill="#000000"/><text fill="#000000" font-family="sans-serif" font-size="14" lengthAdjust="spacing" textLength="125" x="124.5" y="27.8467">LegendProperties</text><line style="stroke:#181818;stroke-width:0.5;" x1="96.5" x2="251.5" y1="39" y2="39"/><text fill="#000000" font-family="sans-serif" font-size="14" lengthAdjust="spacing" textLength="55" x="101.5" y="55.9951">fontsize</text><text fill="#000000" font-family="sans-serif" font-size="14" lengthAdjust="spacing" textLength="105" x="101.5" y="72.292">frameon : bool</text><text fill="#000000" font-family="sans-serif" font-size="14" lengthAdjust="spacing" textLength="135" x="101.5" y="88.5889">labelspacing : float</text><text fill="#000000" font-family="sans-serif" font-size="14" lengthAdjust="spacing" textLength="52" x="101.5" y="104.8857">loc : str</text><text fill="#000000" font-family="sans-serif" font-size="14" lengthAdjust="spacing" textLength="57" x="101.5" y="121.1826">location</text><text fill="#000000" font-family="sans-serif" font-size="14" lengthAdjust="spacing" textLength="61" x="101.5" y="137.4795">ncol : int</text><text fill="#000000" font-family="sans-serif" font-size="14" lengthAdjust="spacing" textLength="58" x="101.5" y="153.7764">title : str</text><line style="stroke:#181818;stroke-width:0.5;" x1="96.5" x2="251.5" y1="161.0781" y2="161.0781"/><text fill="#000000" font-family="sans-serif" font-size="14" lengthAdjust="spacing" textLength="98" x="101.5" y="178.0732">apply(legend)</text></g><!--class DrawingProperties--><g id="elem_DrawingProperties"><rect codeLine="107" fill="#F1F1F1" height="96.8906" id="DrawingProperties" rx="2.5" ry="2.5" style="stroke:#181818;stroke-width:0.5;" width="163" x="1081.5" y="47.5"/><ellipse cx="1096.5" cy="63.5" fill="#ADD1B2" rx="11" ry="11" style="stroke:#181818;stroke-width:1.0;"/><path d="M1099.4844,69.1406 Q1098.9063,69.4375 1098.2656,69.5781 Q1097.625,69.7344 1096.9219,69.7344 Q1094.4063,69.7344 1093.0781,68.0938 Q1091.7656,66.4375 1091.7656,63.3125 Q1091.7656,60.1719 1093.0781,58.5313 Q1094.4063,56.875 1096.9219,56.875 Q1097.625,56.875 1098.2656,57.0313 Q1098.9219,57.1719 1099.4844,57.4688 L1099.4844,60.1875 Q1098.8438,59.6094 1098.25,59.3438 Q1097.6563,59.0781 1097.0313,59.0781 Q1095.6875,59.0781 1095,60.1406 Q1094.3125,61.2031 1094.3125,63.3125 Q1094.3125,65.4063 1095,66.4844 Q1095.6875,67.5469 1097.0313,67.5469 Q1097.6563,67.5469 1098.25,67.2813 Q1098.8438,67 1099.4844,66.4219 L1099.4844,69.1406 Z " fill="#000000"/><text fill="#000000" font-family="sans-serif" font-size="14" lengthAdjust="spacing" textLength="131" x="1110.5" y="68.3467">DrawingProperties</text><line style="stroke:#181818;stroke-width:0.5;" x1="1082.5" x2="1243.5" y1="79.5" y2="79.5"/><text fill="#000000" font-family="sans-serif" font-size="14" lengthAdjust="spacing" textLength="71" x="1087.5" y="96.4951">cmap : str</text><text fill="#000000" font-family="sans-serif" font-size="14" lengthAdjust="spacing" textLength="66" x="1087.5" y="112.792">label : str</text><line style="stroke:#181818;stroke-width:0.5;" x1="1082.5" x2="1243.5" y1="120.0938" y2="120.0938"/><text fill="#000000" font-family="sans-serif" font-size="14" lengthAdjust="spacing" textLength="106" x="1087.5" y="137.0889">apply(drawing)</text></g><!--class LineProperties--><g id="elem_LineProperties"><rect codeLine="112" fill="#F1F1F1" height="145.7813" id="LineProperties" rx="2.5" ry="2.5" style="stroke:#181818;stroke-width:0.5;" width="159" x="895.5" y="351"/><ellipse cx="921.75" cy="367" fill="#ADD1B2" rx="11" ry="11" style="stroke:#181818;stroke-width:1.0;"/><path d="M924.7344,372.6406 Q924.1563,372.9375 923.5156,373.0781 Q922.875,373.2344 922.1719,373.2344 Q919.6563,373.2344 918.3281,371.5938 Q917.0156,369.9375 917.0156,366.8125 Q917.0156,363.6719 918.3281,362.0313 Q919.6563,360.375 922.1719,360.375 Q922.875,360.375 923.5156,360.5313 Q924.1719,360.6719 924.7344,360.9688 L924.7344,363.6875 Q924.0938,363.1094 923.5,362.8438 Q922.9063,362.5781 922.2813,362.5781 Q920.9375,362.5781 920.25,363.6406 Q919.5625,364.7031 919.5625,366.8125 Q919.5625,368.9063 920.25,369.9844 Q920.9375,371.0469 922.2813,371.0469 Q922.9063,371.0469 923.5,370.7813 Q924.0938,370.5 924.7344,369.9219 L924.7344,372.6406 Z " fill="#000000"/><text fill="#000000" font-family="sans-serif" font-size="14" lengthAdjust="spacing" textLength="102" x="938.25" y="371.8467">LineProperties</text><line style="stroke:#181818;stroke-width:0.5;" x1="896.5" x2="1053.5" y1="383" y2="383"/><text fill="#000000" font-family="sans-serif" font-size="14" lengthAdjust="spacing" textLength="67" x="901.5" y="399.9951">color : str</text><text fill="#000000" font-family="sans-serif" font-size="14" lengthAdjust="spacing" textLength="99" x="901.5" y="416.292">drawstyle : str</text><text fill="#000000" font-family="sans-serif" font-size="14" lengthAdjust="spacing" textLength="90" x="901.5" y="432.5889">linestyle : str</text><text fill="#000000" font-family="sans-serif" font-size="14" lengthAdjust="spacing" textLength="109" x="901.5" y="448.8857">linewidth : float</text><text fill="#000000" font-family="sans-serif" font-size="14" lengthAdjust="spacing" textLength="83" x="901.5" y="465.1826">marker : str</text><line style="stroke:#181818;stroke-width:0.5;" x1="896.5" x2="1053.5" y1="472.4844" y2="472.4844"/><text fill="#000000" font-family="sans-serif" font-size="14" lengthAdjust="spacing" textLength="147" x="901.5" y="489.4795">settable_properties()</text></g><!--class SurfaceProperties--><g id="elem_SurfaceProperties"><rect codeLine="120" fill="#F1F1F1" height="129.4844" id="SurfaceProperties" rx="2.5" ry="2.5" style="stroke:#181818;stroke-width:0.5;" width="168" x="1089" y="359.5"/><ellipse cx="1108.05" cy="375.5" fill="#ADD1B2" rx="11" ry="11" style="stroke:#181818;stroke-width:1.0;"/><path d="M1111.0344,381.1406 Q1110.4563,381.4375 1109.8156,381.5781 Q1109.175,381.7344 1108.4719,381.7344 Q1105.9563,381.7344 1104.6281,380.0938 Q1103.3156,378.4375 1103.3156,375.3125 Q1103.3156,372.1719 1104.6281,370.5313 Q1105.9563,368.875 1108.4719,368.875 Q1109.175,368.875 1109.8156,369.0313 Q1110.4719,369.1719 1111.0344,369.4688 L1111.0344,372.1875 Q1110.3938,371.6094 1109.8,371.3438 Q1109.2063,371.0781 1108.5813,371.0781 Q1107.2375,371.0781 1106.55,372.1406 Q1105.8625,373.2031 1105.8625,375.3125 Q1105.8625,377.4063 1106.55,378.4844 Q1107.2375,379.5469 1108.5813,379.5469 Q1109.2063,379.5469 1109.8,379.2813 Q1110.3938,379 1111.0344,378.4219 L1111.0344,381.1406 Z " fill="#000000"/><text fill="#000000" font-family="sans-serif" font-size="14" lengthAdjust="spacing" textLength="127" x="1122.95" y="380.3467">SurfaceProperties</text><line style="stroke:#181818;stroke-width:0.5;" x1="1090" x2="1256" y1="391.5" y2="391.5"/><text fill="#000000" font-family="sans-serif" font-size="14" lengthAdjust="spacing" textLength="71" x="1095" y="408.4951">cmap : str</text><text fill="#000000" font-family="sans-serif" font-size="14" lengthAdjust="spacing" textLength="128" x="1095" y="424.792">colors : NoneType</text><text fill="#000000" font-family="sans-serif" font-size="14" lengthAdjust="spacing" textLength="151" x="1095" y="441.0889">linestyles : NoneType</text><text fill="#000000" font-family="sans-serif" font-size="14" lengthAdjust="spacing" textLength="156" x="1095" y="457.3857">linewidths : NoneType</text><line style="stroke:#181818;stroke-width:0.5;" x1="1090" x2="1256" y1="464.6875" y2="464.6875"/><text fill="#000000" font-family="sans-serif" font-size="14" lengthAdjust="spacing" textLength="106" x="1095" y="481.6826">apply(drawing)</text></g><!--reverse link PlotProperties to SinglePlotProperties--><g id="link_PlotProperties_SinglePlotProperties"><path d="M487.951,167.4886 C469.061,194.9986 456.48,214.03 437,245 C411.65,285.29 384.57,331.76 364.4,367.12 " fill="none" id="PlotProperties-backto-SinglePlotProperties" style="stroke:#181818;stroke-width:1.0;"/><polygon fill="none" points="498.14,152.65,483.0048,164.0922,492.8971,170.8849,498.14,152.65" style="stroke:#181818;stroke-width:1.0;"/></g><!--reverse link PlotProperties to MultiPlotProperties--><g id="link_PlotProperties_MultiPlotProperties"><path d="M537,170.67 C537,225.41 537,291.22 537,351 " fill="none" id="PlotProperties-backto-MultiPlotProperties" style="stroke:#181818;stroke-width:1.0;"/><polygon fill="none" points="537,152.67,531,170.67,543,170.67,537,152.67" style="stroke:#181818;stroke-width:1.0;"/></g><!--reverse link PlotProperties to CompositePlotProperties--><g id="link_PlotProperties_CompositePlotProperties"><path d="M584.6384,167.5907 C628.9384,233.2407 691.39,325.78 730.32,383.46 " fill="none" id="PlotProperties-backto-CompositePlotProperties" style="stroke:#181818;stroke-width:1.0;"/><polygon fill="none" points="574.57,152.67,579.6648,170.9468,589.6119,164.2346,574.57,152.67" style="stroke:#181818;stroke-width:1.0;"/></g><!--reverse link SinglePlotProperties to SinglePlot1DProperties--><g id="link_SinglePlotProperties_SinglePlot1DProperties"><path d="M297.1581,496.5088 C277.8881,533.0188 258.56,564.96 228,603 C202.66,634.53 168.77,665.51 142.82,687.44 " fill="none" id="SinglePlotProperties-backto-SinglePlot1DProperties" style="stroke:#181818;stroke-width:1.0;"/><polygon fill="none" points="305.56,480.59,291.8518,493.7081,302.4643,499.3094,305.56,480.59" style="stroke:#181818;stroke-width:1.0;"/></g><!--reverse link SinglePlotProperties to SinglePlot2DProperties--><g id="link_SinglePlotProperties_SinglePlot2DProperties"><path d="M333,498.55 C333,550.73 333,610.41 333,662.68 " fill="none" id="SinglePlotProperties-backto-SinglePlot2DProperties" style="stroke:#181818;stroke-width:1.0;"/><polygon fill="none" points="333,480.55,327,498.55,339,498.55,333,480.55" style="stroke:#181818;stroke-width:1.0;"/></g><!--reverse link MultiPlot1DProperties to SinglePlot2DStackedProperties--><g id="link_MultiPlot1DProperties_SinglePlot2DStackedProperties"><path d="M557,794.3 C557,814.52 557,818.62 557,835.94 " fill="none" id="MultiPlot1DProperties-backto-SinglePlot2DStackedProperties" style="stroke:#181818;stroke-width:1.0;"/><polygon fill="none" points="557,776.3,551,794.3,563,794.3,557,776.3" style="stroke:#181818;stroke-width:1.0;"/></g><!--reverse link MultiPlotProperties to MultiPlot1DProperties--><g id="link_MultiPlotProperties_MultiPlot1DProperties"><path d="M543.1432,515.1284 C546.6232,566.2184 550,615.78 553.2,662.75 " fill="none" id="MultiPlotProperties-backto-MultiPlot1DProperties" style="stroke:#181818;stroke-width:1.0;"/><polygon fill="none" points="541.92,497.17,537.1571,515.5361,549.1294,514.7206,541.92,497.17" style="stroke:#181818;stroke-width:1.0;"/></g><!--reverse link DrawingProperties to LineProperties--><g id="link_DrawingProperties_LineProperties"><path d="M1123.3057,159.8713 C1105.2757,188.7013 1091.66,211.07 1072,245 C1052.06,279.41 1030.83,318.12 1013.32,350.64 " fill="none" id="DrawingProperties-backto-LineProperties" style="stroke:#181818;stroke-width:1.0;"/><polygon fill="none" points="1132.85,144.61,1118.2186,156.6899,1128.3928,163.0527,1132.85,144.61" style="stroke:#181818;stroke-width:1.0;"/></g><!--reverse link DrawingProperties to SurfaceProperties--><g id="link_DrawingProperties_SurfaceProperties"><path d="M1165.0146,162.7415 C1166.7646,219.5115 1169.12,296.48 1171.05,359.43 " fill="none" id="DrawingProperties-backto-SurfaceProperties" style="stroke:#181818;stroke-width:1.0;"/><polygon fill="none" points="1164.46,144.75,1159.0175,162.9263,1171.0118,162.5566,1164.46,144.75" style="stroke:#181818;stroke-width:1.0;"/></g><!--link LegendProperties to FigureProperties--><!--link AxesProperties to SinglePlotProperties--><!--link SinglePlotProperties to MultiPlotProperties--><!--link MultiPlotProperties to CompositePlotProperties--><!--SRC=[fLNBZjCm5DtdAxBiIB1WbYoG41Li08rKTWX5hdtRMdLYoxwbpOpuTwxjF9p4OGROH8uVvnoV-p1NpBdoGMbyiDg0HGckV2hAyY2F5miqK724Hj3W4Qokb6p0qGypHhKRG-SGx5tngoXuGDh9vgXWXWSt98Wi3Ri5E67PbKxIw6Yb-0F-buj2-Q_mhdnRAkameH6YwXOtTqjQii7gkXAIuyP_gaJ91rqRxIJ-_MMVz-xDDWEOjVOfCIy3TFzI88_3jT9spsm_h9cPXEPvtVVR7J9-1f5X7I8tkLnMVtxh0YYZdYHJZB_g1hwr1lulmEyfMlC0EWCSYS6XT-d0E0JQAQTiVjAPPEvLdtMAxK5L1zsWauz-QyWWgPinCL6YWe7X5aualx8UjzuSP-bUbFmSzZCV3ve_ACrmikAcIiF2RAwTKhOJodPAsQvIjckKROOo1iLNXxU_Bw-OZ6iHw8aEFkX9I2pZdQ7zZlELsQFhtQS57sZ_gpdhjYPQ31CvSNrjZ08_XWOvJsKZ4sOVPFh5Yr6m26t4ZMrsHFr4VMdHDQGRJlNzrvtqbIRtMgk073rDaQTsVWvTVDxZnqGatse8NdIGCNQ6SQgSv4fasgYbCv263Vb3yxB1bNl6LoIfhcqiofaY7WkumvyaOiJfQZcv61cIQH8hy5snHaIFvR1Dj0Pt5pDNAV2KU50pUuOHnW4Ysokep42s6VNjBjQtYPTBJ1q8UcV5CcZCp0UbsU9AV2iMkV3w-qaA0SsFTukiBcPTCDcQUqQAx2EL7CeqxoBtfYT7LXxQuZS0]--></g></svg>