<?xml version="1.0" encoding="us-ascii" standalone="no"?><svg xmlns="http://www.w3.org/2000/svg" xmlns:xlink="http://www.w3.org/1999/xlink" contentStyleType="text/css" height="818px" preserveAspectRatio="none" style="width:867px;height:818px;background:#FFFFFF;" version="1.1" viewBox="0 0 867 818" width="867px" zoomAndPan="magnify"><defs/><g><!--class PlotProperties--><g id="elem_PlotProperties"><rect codeLine="2" fill="#F1F1F1" height="48" id="PlotProperties" rx="2.5" ry="2.5" style="stroke:#181818;stroke-width:0.5;" width="130" x="472" y="7"/><ellipse cx="487" cy="23" fill="#ADD1B2" rx="11" ry="11" style="stroke:#181818;stroke-width:1.0;"/><path d="M489.9844,28.6406 Q489.4063,28.9375 488.7656,29.0781 Q488.125,29.2344 487.4219,29.2344 Q484.9063,29.2344 483.5781,27.5938 Q482.2656,25.9375 482.2656,22.8125 Q482.2656,19.6719 483.5781,18.0313 Q484.9063,16.375 487.4219,16.375 Q488.125,16.375 488.7656,16.5313 Q489.4219,16.6719 489.9844,16.9688 L489.9844,19.6875 Q489.3438,19.1094 488.75,18.8438 Q488.1563,18.5781 487.5313,18.5781 Q486.1875,18.5781 485.5,19.6406 Q484.8125,20.7031 484.8125,22.8125 Q484.8125,24.9063 485.5,25.9844 Q486.1875,27.0469 487.5313,27.0469 Q488.1563,27.0469 488.75,26.7813 Q489.3438,26.5 489.9844,25.9219 L489.9844,28.6406 Z " fill="#000000"/><text fill="#000000" font-family="sans-serif" font-size="14" lengthAdjust="spacing" textLength="98" x="501" y="27.8467">PlotProperties</text><line style="stroke:#181818;stroke-width:0.5;" x1="473" x2="601" y1="39" y2="39"/><line style="stroke:#181818;stroke-width:0.5;" x1="473" x2="601" y1="47" y2="47"/></g><!--class SinglePlotProperties--><g id="elem_SinglePlotProperties"><rect codeLine="5" fill="#F1F1F1" height="48" id="SinglePlotProperties" rx="2.5" ry="2.5" style="stroke:#181818;stroke-width:0.5;" width="174" x="246" y="115"/><ellipse cx="261" cy="131" fill="#ADD1B2" rx="11" ry="11" style="stroke:#181818;stroke-width:1.0;"/><path d="M263.9844,136.6406 Q263.4063,136.9375 262.7656,137.0781 Q262.125,137.2344 261.4219,137.2344 Q258.9063,137.2344 257.5781,135.5938 Q256.2656,133.9375 256.2656,130.8125 Q256.2656,127.6719 257.5781,126.0313 Q258.9063,124.375 261.4219,124.375 Q262.125,124.375 262.7656,124.5313 Q263.4219,124.6719 263.9844,124.9688 L263.9844,127.6875 Q263.3438,127.1094 262.75,126.8438 Q262.1563,126.5781 261.5313,126.5781 Q260.1875,126.5781 259.5,127.6406 Q258.8125,128.7031 258.8125,130.8125 Q258.8125,132.9063 259.5,133.9844 Q260.1875,135.0469 261.5313,135.0469 Q262.1563,135.0469 262.75,134.7813 Q263.3438,134.5 263.9844,133.9219 L263.9844,136.6406 Z " fill="#000000"/><text fill="#000000" font-family="sans-serif" font-size="14" lengthAdjust="spacing" textLength="142" x="275" y="135.8467">SinglePlotProperties</text><line style="stroke:#181818;stroke-width:0.5;" x1="247" x2="419" y1="147" y2="147"/><line style="stroke:#181818;stroke-width:0.5;" x1="247" x2="419" y1="155" y2="155"/></g><!--class MultiPlotProperties--><g id="elem_MultiPlotProperties"><rect codeLine="8" fill="#F1F1F1" height="48" id="MultiPlotProperties" rx="2.5" ry="2.5" style="stroke:#181818;stroke-width:0.5;" width="164" x="455" y="115"/><ellipse cx="470" cy="131" fill="#ADD1B2" rx="11" ry="11" style="stroke:#181818;stroke-width:1.0;"/><path d="M472.9844,136.6406 Q472.4063,136.9375 471.7656,137.0781 Q471.125,137.2344 470.4219,137.2344 Q467.9063,137.2344 466.5781,135.5938 Q465.2656,133.9375 465.2656,130.8125 Q465.2656,127.6719 466.5781,126.0313 Q467.9063,124.375 470.4219,124.375 Q471.125,124.375 471.7656,124.5313 Q472.4219,124.6719 472.9844,124.9688 L472.9844,127.6875 Q472.3438,127.1094 471.75,126.8438 Q471.1563,126.5781 470.5313,126.5781 Q469.1875,126.5781 468.5,127.6406 Q467.8125,128.7031 467.8125,130.8125 Q467.8125,132.9063 468.5,133.9844 Q469.1875,135.0469 470.5313,135.0469 Q471.1563,135.0469 471.75,134.7813 Q472.3438,134.5 472.9844,133.9219 L472.9844,136.6406 Z " fill="#000000"/><text fill="#000000" font-family="sans-serif" font-size="14" lengthAdjust="spacing" textLength="132" x="484" y="135.8467">MultiPlotProperties</text><line style="stroke:#181818;stroke-width:0.5;" x1="456" x2="618" y1="147" y2="147"/><line style="stroke:#181818;stroke-width:0.5;" x1="456" x2="618" y1="155" y2="155"/></g><!--class CompositePlotProperties--><g id="elem_CompositePlotProperties"><rect codeLine="11" fill="#F1F1F1" height="48" id="CompositePlotProperties" rx="2.5" ry="2.5" style="stroke:#181818;stroke-width:0.5;" width="206" x="654" y="115"/><ellipse cx="669" cy="131" fill="#ADD1B2" rx="11" ry="11" style="stroke:#181818;stroke-width:1.0;"/><path d="M671.9844,136.6406 Q671.4063,136.9375 670.7656,137.0781 Q670.125,137.2344 669.4219,137.2344 Q666.9063,137.2344 665.5781,135.5938 Q664.2656,133.9375 664.2656,130.8125 Q664.2656,127.6719 665.5781,126.0313 Q666.9063,124.375 669.4219,124.375 Q670.125,124.375 670.7656,124.5313 Q671.4219,124.6719 671.9844,124.9688 L671.9844,127.6875 Q671.3438,127.1094 670.75,126.8438 Q670.1563,126.5781 669.5313,126.5781 Q668.1875,126.5781 667.5,127.6406 Q666.8125,128.7031 666.8125,130.8125 Q666.8125,132.9063 667.5,133.9844 Q668.1875,135.0469 669.5313,135.0469 Q670.1563,135.0469 670.75,134.7813 Q671.3438,134.5 671.9844,133.9219 L671.9844,136.6406 Z " fill="#000000"/><text fill="#000000" font-family="sans-serif" font-size="14" lengthAdjust="spacing" textLength="174" x="683" y="135.8467">CompositePlotProperties</text><line style="stroke:#181818;stroke-width:0.5;" x1="655" x2="859" y1="147" y2="147"/><line style="stroke:#181818;stroke-width:0.5;" x1="655" x2="859" y1="155" y2="155"/></g><!--class SinglePlot1DProperties--><g id="elem_SinglePlot1DProperties"><rect codeLine="14" fill="#F1F1F1" height="48" id="SinglePlot1DProperties" rx="2.5" ry="2.5" style="stroke:#181818;stroke-width:0.5;" width="194" x="7" y="223"/><ellipse cx="22" cy="239" fill="#ADD1B2" rx="11" ry="11" style="stroke:#181818;stroke-width:1.0;"/><path d="M24.9844,244.6406 Q24.4063,244.9375 23.7656,245.0781 Q23.125,245.2344 22.4219,245.2344 Q19.9063,245.2344 18.5781,243.5938 Q17.2656,241.9375 17.2656,238.8125 Q17.2656,235.6719 18.5781,234.0313 Q19.9063,232.375 22.4219,232.375 Q23.125,232.375 23.7656,232.5313 Q24.4219,232.6719 24.9844,232.9688 L24.9844,235.6875 Q24.3438,235.1094 23.75,234.8438 Q23.1563,234.5781 22.5313,234.5781 Q21.1875,234.5781 20.5,235.6406 Q19.8125,236.7031 19.8125,238.8125 Q19.8125,240.9063 20.5,241.9844 Q21.1875,243.0469 22.5313,243.0469 Q23.1563,243.0469 23.75,242.7813 Q24.3438,242.5 24.9844,241.9219 L24.9844,244.6406 Z " fill="#000000"/><text fill="#000000" font-family="sans-serif" font-size="14" lengthAdjust="spacing" textLength="162" x="36" y="243.8467">SinglePlot1DProperties</text><line style="stroke:#181818;stroke-width:0.5;" x1="8" x2="200" y1="255" y2="255"/><line style="stroke:#181818;stroke-width:0.5;" x1="8" x2="200" y1="263" y2="263"/></g><!--class SinglePlot2DProperties--><g id="elem_SinglePlot2DProperties"><rect codeLine="17" fill="#F1F1F1" height="48" id="SinglePlot2DProperties" rx="2.5" ry="2.5" style="stroke:#181818;stroke-width:0.5;" width="194" x="236" y="223"/><ellipse cx="251" cy="239" fill="#ADD1B2" rx="11" ry="11" style="stroke:#181818;stroke-width:1.0;"/><path d="M253.9844,244.6406 Q253.4063,244.9375 252.7656,245.0781 Q252.125,245.2344 251.4219,245.2344 Q248.9063,245.2344 247.5781,243.5938 Q246.2656,241.9375 246.2656,238.8125 Q246.2656,235.6719 247.5781,234.0313 Q248.9063,232.375 251.4219,232.375 Q252.125,232.375 252.7656,232.5313 Q253.4219,232.6719 253.9844,232.9688 L253.9844,235.6875 Q253.3438,235.1094 252.75,234.8438 Q252.1563,234.5781 251.5313,234.5781 Q250.1875,234.5781 249.5,235.6406 Q248.8125,236.7031 248.8125,238.8125 Q248.8125,240.9063 249.5,241.9844 Q250.1875,243.0469 251.5313,243.0469 Q252.1563,243.0469 252.75,242.7813 Q253.3438,242.5 253.9844,241.9219 L253.9844,244.6406 Z " fill="#000000"/><text fill="#000000" font-family="sans-serif" font-size="14" lengthAdjust="spacing" textLength="162" x="265" y="243.8467">SinglePlot2DProperties</text><line style="stroke:#181818;stroke-width:0.5;" x1="237" x2="429" y1="255" y2="255"/><line style="stroke:#181818;stroke-width:0.5;" x1="237" x2="429" y1="263" y2="263"/></g><!--class SinglePlot2DStackedProperties--><g id="elem_SinglePlot2DStackedProperties"><rect codeLine="20" fill="#F1F1F1" height="48" id="SinglePlot2DStackedProperties" rx="2.5" ry="2.5" style="stroke:#181818;stroke-width:0.5;" width="251" x="431.5" y="331"/><ellipse cx="446.5" cy="347" fill="#ADD1B2" rx="11" ry="11" style="stroke:#181818;stroke-width:1.0;"/><path d="M449.4844,352.6406 Q448.9063,352.9375 448.2656,353.0781 Q447.625,353.2344 446.9219,353.2344 Q444.4063,353.2344 443.0781,351.5938 Q441.7656,349.9375 441.7656,346.8125 Q441.7656,343.6719 443.0781,342.0313 Q444.4063,340.375 446.9219,340.375 Q447.625,340.375 448.2656,340.5313 Q448.9219,340.6719 449.4844,340.9688 L449.4844,343.6875 Q448.8438,343.1094 448.25,342.8438 Q447.6563,342.5781 447.0313,342.5781 Q445.6875,342.5781 445,343.6406 Q444.3125,344.7031 444.3125,346.8125 Q444.3125,348.9063 445,349.9844 Q445.6875,351.0469 447.0313,351.0469 Q447.6563,351.0469 448.25,350.7813 Q448.8438,350.5 449.4844,349.9219 L449.4844,352.6406 Z " fill="#000000"/><text fill="#000000" font-family="sans-serif" font-size="14" lengthAdjust="spacing" textLength="219" x="460.5" y="351.8467">SinglePlot2DStackedProperties</text><line style="stroke:#181818;stroke-width:0.5;" x1="432.5" x2="681.5" y1="363" y2="363"/><line style="stroke:#181818;stroke-width:0.5;" x1="432.5" x2="681.5" y1="371" y2="371"/></g><!--class MultiPlot1DProperties--><g id="elem_MultiPlot1DProperties"><rect codeLine="23" fill="#F1F1F1" height="48" id="MultiPlot1DProperties" rx="2.5" ry="2.5" style="stroke:#181818;stroke-width:0.5;" width="184" x="465" y="223"/><ellipse cx="480" cy="239" fill="#ADD1B2" rx="11" ry="11" style="stroke:#181818;stroke-width:1.0;"/><path d="M482.9844,244.6406 Q482.4063,244.9375 481.7656,245.0781 Q481.125,245.2344 480.4219,245.2344 Q477.9063,245.2344 476.5781,243.5938 Q475.2656,241.9375 475.2656,238.8125 Q475.2656,235.6719 476.5781,234.0313 Q477.9063,232.375 480.4219,232.375 Q481.125,232.375 481.7656,232.5313 Q482.4219,232.6719 482.9844,232.9688 L482.9844,235.6875 Q482.3438,235.1094 481.75,234.8438 Q481.1563,234.5781 480.5313,234.5781 Q479.1875,234.5781 478.5,235.6406 Q477.8125,236.7031 477.8125,238.8125 Q477.8125,240.9063 478.5,241.9844 Q479.1875,243.0469 480.5313,243.0469 Q481.1563,243.0469 481.75,242.7813 Q482.3438,242.5 482.9844,241.9219 L482.9844,244.6406 Z " fill="#000000"/><text fill="#000000" font-family="sans-serif" font-size="14" lengthAdjust="spacing" textLength="152" x="494" y="243.8467">MultiPlot1DProperties</text><line style="stroke:#181818;stroke-width:0.5;" x1="466" x2="648" y1="255" y2="255"/><line style="stroke:#181818;stroke-width:0.5;" x1="466" x2="648" y1="263" y2="263"/></g><!--class DrawingProperties--><g id="elem_DrawingProperties"><rect codeLine="26" fill="#F1F1F1" height="48" id="DrawingProperties" rx="2.5" ry="2.5" style="stroke:#181818;stroke-width:0.5;" width="163" x="475.5" y="439"/><ellipse cx="490.5" cy="455" fill="#ADD1B2" rx="11" ry="11" style="stroke:#181818;stroke-width:1.0;"/><path d="M493.4844,460.6406 Q492.9063,460.9375 492.2656,461.0781 Q491.625,461.2344 490.9219,461.2344 Q488.4063,461.2344 487.0781,459.5938 Q485.7656,457.9375 485.7656,454.8125 Q485.7656,451.6719 487.0781,450.0313 Q488.4063,448.375 490.9219,448.375 Q491.625,448.375 492.2656,448.5313 Q492.9219,448.6719 493.4844,448.9688 L493.4844,451.6875 Q492.8438,451.1094 492.25,450.8438 Q491.6563,450.5781 491.0313,450.5781 Q489.6875,450.5781 489,451.6406 Q488.3125,452.7031 488.3125,454.8125 Q488.3125,456.9063 489,457.9844 Q489.6875,459.0469 491.0313,459.0469 Q491.6563,459.0469 492.25,458.7813 Q492.8438,458.5 493.4844,457.9219 L493.4844,460.6406 Z " fill="#000000"/><text fill="#000000" font-family="sans-serif" font-size="14" lengthAdjust="spacing" textLength="131" x="504.5" y="459.8467">DrawingProperties</text><line style="stroke:#181818;stroke-width:0.5;" x1="476.5" x2="637.5" y1="471" y2="471"/><line style="stroke:#181818;stroke-width:0.5;" x1="476.5" x2="637.5" y1="479" y2="479"/></g><!--class LineProperties--><g id="elem_LineProperties"><rect codeLine="28" fill="#F1F1F1" height="48" id="LineProperties" rx="2.5" ry="2.5" style="stroke:#181818;stroke-width:0.5;" width="134" x="308" y="547"/><ellipse cx="323" cy="563" fill="#ADD1B2" rx="11" ry="11" style="stroke:#181818;stroke-width:1.0;"/><path d="M325.9844,568.6406 Q325.4063,568.9375 324.7656,569.0781 Q324.125,569.2344 323.4219,569.2344 Q320.9063,569.2344 319.5781,567.5938 Q318.2656,565.9375 318.2656,562.8125 Q318.2656,559.6719 319.5781,558.0313 Q320.9063,556.375 323.4219,556.375 Q324.125,556.375 324.7656,556.5313 Q325.4219,556.6719 325.9844,556.9688 L325.9844,559.6875 Q325.3438,559.1094 324.75,558.8438 Q324.1563,558.5781 323.5313,558.5781 Q322.1875,558.5781 321.5,559.6406 Q320.8125,560.7031 320.8125,562.8125 Q320.8125,564.9063 321.5,565.9844 Q322.1875,567.0469 323.5313,567.0469 Q324.1563,567.0469 324.75,566.7813 Q325.3438,566.5 325.9844,565.9219 L325.9844,568.6406 Z " fill="#000000"/><text fill="#000000" font-family="sans-serif" font-size="14" lengthAdjust="spacing" textLength="102" x="337" y="567.8467">LineProperties</text><line style="stroke:#181818;stroke-width:0.5;" x1="309" x2="441" y1="579" y2="579"/><line style="stroke:#181818;stroke-width:0.5;" x1="309" x2="441" y1="587" y2="587"/></g><!--class SurfaceProperties--><g id="elem_SurfaceProperties"><rect codeLine="30" fill="#F1F1F1" height="48" id="SurfaceProperties" rx="2.5" ry="2.5" style="stroke:#181818;stroke-width:0.5;" width="159" x="477.5" y="547"/><ellipse cx="492.5" cy="563" fill="#ADD1B2" rx="11" ry="11" style="stroke:#181818;stroke-width:1.0;"/><path d="M495.4844,568.6406 Q494.9063,568.9375 494.2656,569.0781 Q493.625,569.2344 492.9219,569.2344 Q490.4063,569.2344 489.0781,567.5938 Q487.7656,565.9375 487.7656,562.8125 Q487.7656,559.6719 489.0781,558.0313 Q490.4063,556.375 492.9219,556.375 Q493.625,556.375 494.2656,556.5313 Q494.9219,556.6719 495.4844,556.9688 L495.4844,559.6875 Q494.8438,559.1094 494.25,558.8438 Q493.6563,558.5781 493.0313,558.5781 Q491.6875,558.5781 491,559.6406 Q490.3125,560.7031 490.3125,562.8125 Q490.3125,564.9063 491,565.9844 Q491.6875,567.0469 493.0313,567.0469 Q493.6563,567.0469 494.25,566.7813 Q494.8438,566.5 495.4844,565.9219 L495.4844,568.6406 Z " fill="#000000"/><text fill="#000000" font-family="sans-serif" font-size="14" lengthAdjust="spacing" textLength="127" x="506.5" y="567.8467">SurfaceProperties</text><line style="stroke:#181818;stroke-width:0.5;" x1="478.5" x2="635.5" y1="579" y2="579"/><line style="stroke:#181818;stroke-width:0.5;" x1="478.5" x2="635.5" y1="587" y2="587"/></g><!--class TextProperties--><g id="elem_TextProperties"><rect codeLine="32" fill="#F1F1F1" height="48" id="TextProperties" rx="2.5" ry="2.5" style="stroke:#181818;stroke-width:0.5;" width="135" x="671.5" y="547"/><ellipse cx="686.5" cy="563" fill="#ADD1B2" rx="11" ry="11" style="stroke:#181818;stroke-width:1.0;"/><path d="M689.4844,568.6406 Q688.9063,568.9375 688.2656,569.0781 Q687.625,569.2344 686.9219,569.2344 Q684.4063,569.2344 683.0781,567.5938 Q681.7656,565.9375 681.7656,562.8125 Q681.7656,559.6719 683.0781,558.0313 Q684.4063,556.375 686.9219,556.375 Q687.625,556.375 688.2656,556.5313 Q688.9219,556.6719 689.4844,556.9688 L689.4844,559.6875 Q688.8438,559.1094 688.25,558.8438 Q687.6563,558.5781 687.0313,558.5781 Q685.6875,558.5781 685,559.6406 Q684.3125,560.7031 684.3125,562.8125 Q684.3125,564.9063 685,565.9844 Q685.6875,567.0469 687.0313,567.0469 Q687.6563,567.0469 688.25,566.7813 Q688.8438,566.5 689.4844,565.9219 L689.4844,568.6406 Z " fill="#000000"/><text fill="#000000" font-family="sans-serif" font-size="14" lengthAdjust="spacing" textLength="103" x="700.5" y="567.8467">TextProperties</text><line style="stroke:#181818;stroke-width:0.5;" x1="672.5" x2="805.5" y1="579" y2="579"/><line style="stroke:#181818;stroke-width:0.5;" x1="672.5" x2="805.5" y1="587" y2="587"/></g><!--class AxesProperties--><g id="elem_AxesProperties"><rect codeLine="35" fill="#F1F1F1" height="48" id="AxesProperties" rx="2.5" ry="2.5" style="stroke:#181818;stroke-width:0.5;" width="138" x="305" y="655"/><ellipse cx="320" cy="671" fill="#ADD1B2" rx="11" ry="11" style="stroke:#181818;stroke-width:1.0;"/><path d="M322.9844,676.6406 Q322.4063,676.9375 321.7656,677.0781 Q321.125,677.2344 320.4219,677.2344 Q317.9063,677.2344 316.5781,675.5938 Q315.2656,673.9375 315.2656,670.8125 Q315.2656,667.6719 316.5781,666.0313 Q317.9063,664.375 320.4219,664.375 Q321.125,664.375 321.7656,664.5313 Q322.4219,664.6719 322.9844,664.9688 L322.9844,667.6875 Q322.3438,667.1094 321.75,666.8438 Q321.1563,666.5781 320.5313,666.5781 Q319.1875,666.5781 318.5,667.6406 Q317.8125,668.7031 317.8125,670.8125 Q317.8125,672.9063 318.5,673.9844 Q319.1875,675.0469 320.5313,675.0469 Q321.1563,675.0469 321.75,674.7813 Q322.3438,674.5 322.9844,673.9219 L322.9844,676.6406 Z " fill="#000000"/><text fill="#000000" font-family="sans-serif" font-size="14" lengthAdjust="spacing" textLength="106" x="334" y="675.8467">AxesProperties</text><line style="stroke:#181818;stroke-width:0.5;" x1="306" x2="442" y1="687" y2="687"/><line style="stroke:#181818;stroke-width:0.5;" x1="306" x2="442" y1="695" y2="695"/></g><!--class ColorbarProperties--><g id="elem_ColorbarProperties"><rect codeLine="37" fill="#F1F1F1" height="48" id="ColorbarProperties" rx="2.5" ry="2.5" style="stroke:#181818;stroke-width:0.5;" width="166" x="297" y="763"/><ellipse cx="312" cy="779" fill="#ADD1B2" rx="11" ry="11" style="stroke:#181818;stroke-width:1.0;"/><path d="M314.9844,784.6406 Q314.4063,784.9375 313.7656,785.0781 Q313.125,785.2344 312.4219,785.2344 Q309.9063,785.2344 308.5781,783.5938 Q307.2656,781.9375 307.2656,778.8125 Q307.2656,775.6719 308.5781,774.0313 Q309.9063,772.375 312.4219,772.375 Q313.125,772.375 313.7656,772.5313 Q314.4219,772.6719 314.9844,772.9688 L314.9844,775.6875 Q314.3438,775.1094 313.75,774.8438 Q313.1563,774.5781 312.5313,774.5781 Q311.1875,774.5781 310.5,775.6406 Q309.8125,776.7031 309.8125,778.8125 Q309.8125,780.9063 310.5,781.9844 Q311.1875,783.0469 312.5313,783.0469 Q313.1563,783.0469 313.75,782.7813 Q314.3438,782.5 314.9844,781.9219 L314.9844,784.6406 Z " fill="#000000"/><text fill="#000000" font-family="sans-serif" font-size="14" lengthAdjust="spacing" textLength="134" x="326" y="783.8467">ColorbarProperties</text><line style="stroke:#181818;stroke-width:0.5;" x1="298" x2="462" y1="795" y2="795"/><line style="stroke:#181818;stroke-width:0.5;" x1="298" x2="462" y1="803" y2="803"/></g><!--class FigureProperties--><g id="elem_FigureProperties"><rect codeLine="39" fill="#F1F1F1" height="48" id="FigureProperties" rx="2.5" ry="2.5" style="stroke:#181818;stroke-width:0.5;" width="149" x="120.5" y="655"/><ellipse cx="135.5" cy="671" fill="#ADD1B2" rx="11" ry="11" style="stroke:#181818;stroke-width:1.0;"/><path d="M138.4844,676.6406 Q137.9063,676.9375 137.2656,677.0781 Q136.625,677.2344 135.9219,677.2344 Q133.4063,677.2344 132.0781,675.5938 Q130.7656,673.9375 130.7656,670.8125 Q130.7656,667.6719 132.0781,666.0313 Q133.4063,664.375 135.9219,664.375 Q136.625,664.375 137.2656,664.5313 Q137.9219,664.6719 138.4844,664.9688 L138.4844,667.6875 Q137.8438,667.1094 137.25,666.8438 Q136.6563,666.5781 136.0313,666.5781 Q134.6875,666.5781 134,667.6406 Q133.3125,668.7031 133.3125,670.8125 Q133.3125,672.9063 134,673.9844 Q134.6875,675.0469 136.0313,675.0469 Q136.6563,675.0469 137.25,674.7813 Q137.8438,674.5 138.4844,673.9219 L138.4844,676.6406 Z " fill="#000000"/><text fill="#000000" font-family="sans-serif" font-size="14" lengthAdjust="spacing" textLength="117" x="149.5" y="675.8467">FigureProperties</text><line style="stroke:#181818;stroke-width:0.5;" x1="121.5" x2="268.5" y1="687" y2="687"/><line style="stroke:#181818;stroke-width:0.5;" x1="121.5" x2="268.5" y1="695" y2="695"/></g><!--class GridProperties--><g id="elem_GridProperties"><rect codeLine="41" fill="#F1F1F1" height="48" id="GridProperties" rx="2.5" ry="2.5" style="stroke:#181818;stroke-width:0.5;" width="134" x="128" y="763"/><ellipse cx="143" cy="779" fill="#ADD1B2" rx="11" ry="11" style="stroke:#181818;stroke-width:1.0;"/><path d="M145.9844,784.6406 Q145.4063,784.9375 144.7656,785.0781 Q144.125,785.2344 143.4219,785.2344 Q140.9063,785.2344 139.5781,783.5938 Q138.2656,781.9375 138.2656,778.8125 Q138.2656,775.6719 139.5781,774.0313 Q140.9063,772.375 143.4219,772.375 Q144.125,772.375 144.7656,772.5313 Q145.4219,772.6719 145.9844,772.9688 L145.9844,775.6875 Q145.3438,775.1094 144.75,774.8438 Q144.1563,774.5781 143.5313,774.5781 Q142.1875,774.5781 141.5,775.6406 Q140.8125,776.7031 140.8125,778.8125 Q140.8125,780.9063 141.5,781.9844 Q142.1875,783.0469 143.5313,783.0469 Q144.1563,783.0469 144.75,782.7813 Q145.3438,782.5 145.9844,781.9219 L145.9844,784.6406 Z " fill="#000000"/><text fill="#000000" font-family="sans-serif" font-size="14" lengthAdjust="spacing" textLength="102" x="157" y="783.8467">GridProperties</text><line style="stroke:#181818;stroke-width:0.5;" x1="129" x2="261" y1="795" y2="795"/><line style="stroke:#181818;stroke-width:0.5;" x1="129" x2="261" y1="803" y2="803"/></g><!--class LegendProperties--><g id="elem_LegendProperties"><rect codeLine="43" fill="#F1F1F1" height="48" id="LegendProperties" rx="2.5" ry="2.5" style="stroke:#181818;stroke-width:0.5;" width="157" x="478.5" y="655"/><ellipse cx="493.5" cy="671" fill="#ADD1B2" rx="11" ry="11" style="stroke:#181818;stroke-width:1.0;"/><path d="M496.4844,676.6406 Q495.9063,676.9375 495.2656,677.0781 Q494.625,677.2344 493.9219,677.2344 Q491.4063,677.2344 490.0781,675.5938 Q488.7656,673.9375 488.7656,670.8125 Q488.7656,667.6719 490.0781,666.0313 Q491.4063,664.375 493.9219,664.375 Q494.625,664.375 495.2656,664.5313 Q495.9219,664.6719 496.4844,664.9688 L496.4844,667.6875 Q495.8438,667.1094 495.25,666.8438 Q494.6563,666.5781 494.0313,666.5781 Q492.6875,666.5781 492,667.6406 Q491.3125,668.7031 491.3125,670.8125 Q491.3125,672.9063 492,673.9844 Q492.6875,675.0469 494.0313,675.0469 Q494.6563,675.0469 495.25,674.7813 Q495.8438,674.5 496.4844,673.9219 L496.4844,676.6406 Z " fill="#000000"/><text fill="#000000" font-family="sans-serif" font-size="14" lengthAdjust="spacing" textLength="125" x="507.5" y="675.8467">LegendProperties</text><line style="stroke:#181818;stroke-width:0.5;" x1="479.5" x2="634.5" y1="687" y2="687"/><line style="stroke:#181818;stroke-width:0.5;" x1="479.5" x2="634.5" y1="695" y2="695"/></g><!--reverse link PlotProperties to SinglePlotProperties--><g id="link_PlotProperties_SinglePlotProperties"><path d="M476.7668,63.298 C442.6568,81.018 411.7,97.11 377.53,114.86 " fill="none" id="PlotProperties-backto-SinglePlotProperties" style="stroke:#181818;stroke-width:1.0;"/><polygon fill="none" points="492.74,55,474.0008,57.9736,479.5328,68.6224,492.74,55" style="stroke:#181818;stroke-width:1.0;"/></g><!--reverse link PlotProperties to MultiPlotProperties--><g id="link_PlotProperties_MultiPlotProperties"><path d="M537,73 C537,90.66 537,96.94 537,114.68 " fill="none" id="PlotProperties-backto-MultiPlotProperties" style="stroke:#181818;stroke-width:1.0;"/><polygon fill="none" points="537,55,531,73,543,73,537,55" style="stroke:#181818;stroke-width:1.0;"/></g><!--reverse link PlotProperties to CompositePlotProperties--><g id="link_PlotProperties_CompositePlotProperties"><path d="M600.9553,62.8144 C637.7253,80.5344 672.13,97.11 708.98,114.86 " fill="none" id="PlotProperties-backto-CompositePlotProperties" style="stroke:#181818;stroke-width:1.0;"/><polygon fill="none" points="584.74,55,598.3505,68.2195,603.5601,57.4093,584.74,55" style="stroke:#181818;stroke-width:1.0;"/></g><!--reverse link SinglePlotProperties to SinglePlot1DProperties--><g id="link_SinglePlotProperties_SinglePlot1DProperties"><path d="M266.9752,170.5614 C228.6952,188.2814 192.34,205.11 153.99,222.86 " fill="none" id="SinglePlotProperties-backto-SinglePlot1DProperties" style="stroke:#181818;stroke-width:1.0;"/><polygon fill="none" points="283.31,163,264.4548,165.1165,269.4957,176.0064,283.31,163" style="stroke:#181818;stroke-width:1.0;"/></g><!--reverse link SinglePlotProperties to SinglePlot2DProperties--><g id="link_SinglePlotProperties_SinglePlot2DProperties"><path d="M333,181 C333,198.66 333,204.94 333,222.68 " fill="none" id="SinglePlotProperties-backto-SinglePlot2DProperties" style="stroke:#181818;stroke-width:1.0;"/><polygon fill="none" points="333,163,327,181,339,181,333,163" style="stroke:#181818;stroke-width:1.0;"/></g><!--reverse link MultiPlot1DProperties to SinglePlot2DStackedProperties--><g id="link_MultiPlot1DProperties_SinglePlot2DStackedProperties"><path d="M557,289 C557,306.66 557,312.94 557,330.68 " fill="none" id="MultiPlot1DProperties-backto-SinglePlot2DStackedProperties" style="stroke:#181818;stroke-width:1.0;"/><polygon fill="none" points="557,271,551,289,563,289,557,271" style="stroke:#181818;stroke-width:1.0;"/></g><!--reverse link MultiPlotProperties to MultiPlot1DProperties--><g id="link_MultiPlotProperties_MultiPlot1DProperties"><path d="M544.6753,180.6883 C548.0053,198.3483 549.25,204.94 552.6,222.68 " fill="none" id="MultiPlotProperties-backto-MultiPlot1DProperties" style="stroke:#181818;stroke-width:1.0;"/><polygon fill="none" points="541.34,163,538.7792,181.8001,550.5714,179.5765,541.34,163" style="stroke:#181818;stroke-width:1.0;"/></g><!--reverse link DrawingProperties to LineProperties--><g id="link_DrawingProperties_LineProperties"><path d="M501.9564,496.0601 C471.5364,513.7801 445.21,529.11 414.73,546.86 " fill="none" id="DrawingProperties-backto-LineProperties" style="stroke:#181818;stroke-width:1.0;"/><polygon fill="none" points="517.51,487,498.9364,490.8756,504.9765,501.2447,517.51,487" style="stroke:#181818;stroke-width:1.0;"/></g><!--reverse link DrawingProperties to SurfaceProperties--><g id="link_DrawingProperties_SurfaceProperties"><path d="M557,505 C557,522.66 557,528.94 557,546.68 " fill="none" id="DrawingProperties-backto-SurfaceProperties" style="stroke:#181818;stroke-width:1.0;"/><polygon fill="none" points="557,487,551,505,563,505,557,487" style="stroke:#181818;stroke-width:1.0;"/></g><!--reverse link DrawingProperties to TextProperties--><g id="link_DrawingProperties_TextProperties"><path d="M612.0436,496.0601 C642.4636,513.7801 668.79,529.11 699.27,546.86 " fill="none" id="DrawingProperties-backto-TextProperties" style="stroke:#181818;stroke-width:1.0;"/><polygon fill="none" points="596.49,487,609.0235,501.2447,615.0636,490.8756,596.49,487" style="stroke:#181818;stroke-width:1.0;"/></g><!--link SinglePlotProperties to MultiPlotProperties--><!--link MultiPlotProperties to CompositePlotProperties--><!--link SinglePlot2DStackedProperties to DrawingProperties--><!--link FigureProperties to AxesProperties--><!--link AxesProperties to LegendProperties--><!--link SurfaceProperties to LegendProperties--><!--link FigureProperties to GridProperties--><!--link GridProperties to ColorbarProperties--><!--SRC=[bPB13e8m38RlVGfUm8C-08c1w4KJ4hmP3vDLN9oCR2EI6DzTeWR7A0JExVVtxzzcaXaJ95BPHAiIjHLeWYUy0B9F9HL5Bj6hOssnu6FOlf9MpAOYTI-L4NR-lB_DPKo0v1OalfgA3z2fPTaDEI7IHj9nI6L6ha0awh2nPe_6XIVyhUr4WOJW699M-iAokTIXQPgC_9XrZOOKYvHK-imqMTo8lD98bhPQS3e6p1ixlWloCnR7g-0SYrD8nGxKSpl8m1UxiwW_QHKMOJyoWDxApiHkYE1bwZJw6K3_qAwDNlk8YwQz6prub-WavD_s3G00]--></g></svg>