<?xml version="1.0" encoding="us-ascii" standalone="no"?><svg xmlns="http://www.w3.org/2000/svg" xmlns:xlink="http://www.w3.org/1999/xlink" contentStyleType="text/css" height="396px" preserveAspectRatio="none" style="width:1004px;height:396px;background:#FFFFFF;" version="1.1" viewBox="0 0 1004 396" width="1004px" zoomAndPan="magnify"><defs/><g><!--class Plotter--><g id="elem_Plotter"><rect codeLine="2" fill="#F1F1F1" height="48" id="Plotter" rx="2.5" ry="2.5" style="stroke:#181818;stroke-width:0.5;" width="78" x="559.5" y="7"/><ellipse cx="574.5" cy="23" fill="#A9DCDF" rx="11" ry="11" style="stroke:#181818;stroke-width:1.0;"/><path d="M574.625,18.3438 L573.4688,23.4219 L575.7813,23.4219 L574.625,18.3438 Z M573.125,16.0938 L576.125,16.0938 L579.4688,28.5 L577.0156,28.5 L576.25,25.4375 L572.9688,25.4375 L572.2188,28.5 L569.7813,28.5 L573.125,16.0938 Z " fill="#000000"/><text fill="#000000" font-family="sans-serif" font-size="14" font-style="italic" lengthAdjust="spacing" textLength="46" x="588.5" y="27.8467">Plotter</text><line style="stroke:#181818;stroke-width:0.5;" x1="560.5" x2="636.5" y1="39" y2="39"/><line style="stroke:#181818;stroke-width:0.5;" x1="560.5" x2="636.5" y1="47" y2="47"/></g><!--class SinglePlotter--><g id="elem_SinglePlotter"><rect codeLine="5" fill="#F1F1F1" height="48" id="SinglePlotter" rx="2.5" ry="2.5" style="stroke:#181818;stroke-width:0.5;" width="122" x="436.5" y="119.5"/><ellipse cx="451.5" cy="135.5" fill="#A9DCDF" rx="11" ry="11" style="stroke:#181818;stroke-width:1.0;"/><path d="M451.625,130.8438 L450.4688,135.9219 L452.7813,135.9219 L451.625,130.8438 Z M450.125,128.5938 L453.125,128.5938 L456.4688,141 L454.0156,141 L453.25,137.9375 L449.9688,137.9375 L449.2188,141 L446.7813,141 L450.125,128.5938 Z " fill="#000000"/><text fill="#000000" font-family="sans-serif" font-size="14" font-style="italic" lengthAdjust="spacing" textLength="90" x="465.5" y="140.3467">SinglePlotter</text><line style="stroke:#181818;stroke-width:0.5;" x1="437.5" x2="557.5" y1="151.5" y2="151.5"/><line style="stroke:#181818;stroke-width:0.5;" x1="437.5" x2="557.5" y1="159.5" y2="159.5"/></g><!--class MultiPlotter--><g id="elem_MultiPlotter"><rect codeLine="8" fill="#F1F1F1" height="48" id="MultiPlotter" rx="2.5" ry="2.5" style="stroke:#181818;stroke-width:0.5;" width="112" x="606.5" y="119.5"/><ellipse cx="621.5" cy="135.5" fill="#A9DCDF" rx="11" ry="11" style="stroke:#181818;stroke-width:1.0;"/><path d="M621.625,130.8438 L620.4688,135.9219 L622.7813,135.9219 L621.625,130.8438 Z M620.125,128.5938 L623.125,128.5938 L626.4688,141 L624.0156,141 L623.25,137.9375 L619.9688,137.9375 L619.2188,141 L616.7813,141 L620.125,128.5938 Z " fill="#000000"/><text fill="#000000" font-family="sans-serif" font-size="14" font-style="italic" lengthAdjust="spacing" textLength="80" x="635.5" y="140.3467">MultiPlotter</text><line style="stroke:#181818;stroke-width:0.5;" x1="607.5" x2="717.5" y1="151.5" y2="151.5"/><line style="stroke:#181818;stroke-width:0.5;" x1="607.5" x2="717.5" y1="159.5" y2="159.5"/></g><!--class MultiPlotter1D--><g id="elem_MultiPlotter1D"><rect codeLine="11" fill="#F1F1F1" height="48" id="MultiPlotter1D" rx="2.5" ry="2.5" style="stroke:#181818;stroke-width:0.5;" width="132" x="632.5" y="232"/><ellipse cx="647.5" cy="248" fill="#ADD1B2" rx="11" ry="11" style="stroke:#181818;stroke-width:1.0;"/><path d="M650.4844,253.6406 Q649.9063,253.9375 649.2656,254.0781 Q648.625,254.2344 647.9219,254.2344 Q645.4063,254.2344 644.0781,252.5938 Q642.7656,250.9375 642.7656,247.8125 Q642.7656,244.6719 644.0781,243.0313 Q645.4063,241.375 647.9219,241.375 Q648.625,241.375 649.2656,241.5313 Q649.9219,241.6719 650.4844,241.9688 L650.4844,244.6875 Q649.8438,244.1094 649.25,243.8438 Q648.6563,243.5781 648.0313,243.5781 Q646.6875,243.5781 646,244.6406 Q645.3125,245.7031 645.3125,247.8125 Q645.3125,249.9063 646,250.9844 Q646.6875,252.0469 648.0313,252.0469 Q648.6563,252.0469 649.25,251.7813 Q649.8438,251.5 650.4844,250.9219 L650.4844,253.6406 Z " fill="#000000"/><text fill="#000000" font-family="sans-serif" font-size="14" lengthAdjust="spacing" textLength="100" x="661.5" y="252.8467">MultiPlotter1D</text><line style="stroke:#181818;stroke-width:0.5;" x1="633.5" x2="763.5" y1="264" y2="264"/><line style="stroke:#181818;stroke-width:0.5;" x1="633.5" x2="763.5" y1="272" y2="272"/></g><!--class MultiDeviceDataPlotter1D--><g id="elem_MultiDeviceDataPlotter1D"><rect codeLine="14" fill="#F1F1F1" height="48" id="MultiDeviceDataPlotter1D" rx="2.5" ry="2.5" style="stroke:#181818;stroke-width:0.5;" width="215" x="7" y="341"/><ellipse cx="22" cy="357" fill="#ADD1B2" rx="11" ry="11" style="stroke:#181818;stroke-width:1.0;"/><path d="M24.9844,362.6406 Q24.4063,362.9375 23.7656,363.0781 Q23.125,363.2344 22.4219,363.2344 Q19.9063,363.2344 18.5781,361.5938 Q17.2656,359.9375 17.2656,356.8125 Q17.2656,353.6719 18.5781,352.0313 Q19.9063,350.375 22.4219,350.375 Q23.125,350.375 23.7656,350.5313 Q24.4219,350.6719 24.9844,350.9688 L24.9844,353.6875 Q24.3438,353.1094 23.75,352.8438 Q23.1563,352.5781 22.5313,352.5781 Q21.1875,352.5781 20.5,353.6406 Q19.8125,354.7031 19.8125,356.8125 Q19.8125,358.9063 20.5,359.9844 Q21.1875,361.0469 22.5313,361.0469 Q23.1563,361.0469 23.75,360.7813 Q24.3438,360.5 24.9844,359.9219 L24.9844,362.6406 Z " fill="#000000"/><text fill="#000000" font-family="sans-serif" font-size="14" lengthAdjust="spacing" textLength="183" x="36" y="361.8467">MultiDeviceDataPlotter1D</text><line style="stroke:#181818;stroke-width:0.5;" x1="8" x2="221" y1="373" y2="373"/><line style="stroke:#181818;stroke-width:0.5;" x1="8" x2="221" y1="381" y2="381"/></g><!--class SinglePlotter1D--><g id="elem_SinglePlotter1D"><rect codeLine="20" fill="#F1F1F1" height="48" id="SinglePlotter1D" rx="2.5" ry="2.5" style="stroke:#181818;stroke-width:0.5;" width="142" x="43.5" y="232"/><ellipse cx="58.5" cy="248" fill="#ADD1B2" rx="11" ry="11" style="stroke:#181818;stroke-width:1.0;"/><path d="M61.4844,253.6406 Q60.9063,253.9375 60.2656,254.0781 Q59.625,254.2344 58.9219,254.2344 Q56.4063,254.2344 55.0781,252.5938 Q53.7656,250.9375 53.7656,247.8125 Q53.7656,244.6719 55.0781,243.0313 Q56.4063,241.375 58.9219,241.375 Q59.625,241.375 60.2656,241.5313 Q60.9219,241.6719 61.4844,241.9688 L61.4844,244.6875 Q60.8438,244.1094 60.25,243.8438 Q59.6563,243.5781 59.0313,243.5781 Q57.6875,243.5781 57,244.6406 Q56.3125,245.7031 56.3125,247.8125 Q56.3125,249.9063 57,250.9844 Q57.6875,252.0469 59.0313,252.0469 Q59.6563,252.0469 60.25,251.7813 Q60.8438,251.5 61.4844,250.9219 L61.4844,253.6406 Z " fill="#000000"/><text fill="#000000" font-family="sans-serif" font-size="14" lengthAdjust="spacing" textLength="110" x="72.5" y="252.8467">SinglePlotter1D</text><line style="stroke:#181818;stroke-width:0.5;" x1="44.5" x2="184.5" y1="264" y2="264"/><line style="stroke:#181818;stroke-width:0.5;" x1="44.5" x2="184.5" y1="272" y2="272"/></g><!--class MultiPlotter1DStacked--><g id="elem_MultiPlotter1DStacked"><rect codeLine="17" fill="#F1F1F1" height="48" id="MultiPlotter1DStacked" rx="2.5" ry="2.5" style="stroke:#181818;stroke-width:0.5;" width="189" x="604" y="341"/><ellipse cx="619" cy="357" fill="#ADD1B2" rx="11" ry="11" style="stroke:#181818;stroke-width:1.0;"/><path d="M621.9844,362.6406 Q621.4063,362.9375 620.7656,363.0781 Q620.125,363.2344 619.4219,363.2344 Q616.9063,363.2344 615.5781,361.5938 Q614.2656,359.9375 614.2656,356.8125 Q614.2656,353.6719 615.5781,352.0313 Q616.9063,350.375 619.4219,350.375 Q620.125,350.375 620.7656,350.5313 Q621.4219,350.6719 621.9844,350.9688 L621.9844,353.6875 Q621.3438,353.1094 620.75,352.8438 Q620.1563,352.5781 619.5313,352.5781 Q618.1875,352.5781 617.5,353.6406 Q616.8125,354.7031 616.8125,356.8125 Q616.8125,358.9063 617.5,359.9844 Q618.1875,361.0469 619.5313,361.0469 Q620.1563,361.0469 620.75,360.7813 Q621.3438,360.5 621.9844,359.9219 L621.9844,362.6406 Z " fill="#000000"/><text fill="#000000" font-family="sans-serif" font-size="14" lengthAdjust="spacing" textLength="157" x="633" y="361.8467">MultiPlotter1DStacked</text><line style="stroke:#181818;stroke-width:0.5;" x1="605" x2="792" y1="373" y2="373"/><line style="stroke:#181818;stroke-width:0.5;" x1="605" x2="792" y1="381" y2="381"/></g><!--class SinglePlotter2D--><g id="elem_SinglePlotter2D"><rect codeLine="23" fill="#F1F1F1" height="48" id="SinglePlotter2D" rx="2.5" ry="2.5" style="stroke:#181818;stroke-width:0.5;" width="142" x="220.5" y="232"/><ellipse cx="235.5" cy="248" fill="#ADD1B2" rx="11" ry="11" style="stroke:#181818;stroke-width:1.0;"/><path d="M238.4844,253.6406 Q237.9063,253.9375 237.2656,254.0781 Q236.625,254.2344 235.9219,254.2344 Q233.4063,254.2344 232.0781,252.5938 Q230.7656,250.9375 230.7656,247.8125 Q230.7656,244.6719 232.0781,243.0313 Q233.4063,241.375 235.9219,241.375 Q236.625,241.375 237.2656,241.5313 Q237.9219,241.6719 238.4844,241.9688 L238.4844,244.6875 Q237.8438,244.1094 237.25,243.8438 Q236.6563,243.5781 236.0313,243.5781 Q234.6875,243.5781 234,244.6406 Q233.3125,245.7031 233.3125,247.8125 Q233.3125,249.9063 234,250.9844 Q234.6875,252.0469 236.0313,252.0469 Q236.6563,252.0469 237.25,251.7813 Q237.8438,251.5 238.4844,250.9219 L238.4844,253.6406 Z " fill="#000000"/><text fill="#000000" font-family="sans-serif" font-size="14" lengthAdjust="spacing" textLength="110" x="249.5" y="252.8467">SinglePlotter2D</text><line style="stroke:#181818;stroke-width:0.5;" x1="221.5" x2="361.5" y1="264" y2="264"/><line style="stroke:#181818;stroke-width:0.5;" x1="221.5" x2="361.5" y1="272" y2="272"/></g><!--class SinglePlotter2DStacked--><g id="elem_SinglePlotter2DStacked"><rect codeLine="26" fill="#F1F1F1" height="48" id="SinglePlotter2DStacked" rx="2.5" ry="2.5" style="stroke:#181818;stroke-width:0.5;" width="199" x="398" y="232"/><ellipse cx="413" cy="248" fill="#ADD1B2" rx="11" ry="11" style="stroke:#181818;stroke-width:1.0;"/><path d="M415.9844,253.6406 Q415.4063,253.9375 414.7656,254.0781 Q414.125,254.2344 413.4219,254.2344 Q410.9063,254.2344 409.5781,252.5938 Q408.2656,250.9375 408.2656,247.8125 Q408.2656,244.6719 409.5781,243.0313 Q410.9063,241.375 413.4219,241.375 Q414.125,241.375 414.7656,241.5313 Q415.4219,241.6719 415.9844,241.9688 L415.9844,244.6875 Q415.3438,244.1094 414.75,243.8438 Q414.1563,243.5781 413.5313,243.5781 Q412.1875,243.5781 411.5,244.6406 Q410.8125,245.7031 410.8125,247.8125 Q410.8125,249.9063 411.5,250.9844 Q412.1875,252.0469 413.5313,252.0469 Q414.1563,252.0469 414.75,251.7813 Q415.3438,251.5 415.9844,250.9219 L415.9844,253.6406 Z " fill="#000000"/><text fill="#000000" font-family="sans-serif" font-size="14" lengthAdjust="spacing" textLength="167" x="427" y="252.8467">SinglePlotter2DStacked</text><line style="stroke:#181818;stroke-width:0.5;" x1="399" x2="596" y1="264" y2="264"/><line style="stroke:#181818;stroke-width:0.5;" x1="399" x2="596" y1="272" y2="272"/></g><!--class CompositePlotter--><g id="elem_CompositePlotter"><rect codeLine="29" fill="#F1F1F1" height="48" id="CompositePlotter" rx="2.5" ry="2.5" style="stroke:#181818;stroke-width:0.5;" width="154" x="787.5" y="119.5"/><ellipse cx="802.5" cy="135.5" fill="#ADD1B2" rx="11" ry="11" style="stroke:#181818;stroke-width:1.0;"/><path d="M805.4844,141.1406 Q804.9063,141.4375 804.2656,141.5781 Q803.625,141.7344 802.9219,141.7344 Q800.4063,141.7344 799.0781,140.0938 Q797.7656,138.4375 797.7656,135.3125 Q797.7656,132.1719 799.0781,130.5313 Q800.4063,128.875 802.9219,128.875 Q803.625,128.875 804.2656,129.0313 Q804.9219,129.1719 805.4844,129.4688 L805.4844,132.1875 Q804.8438,131.6094 804.25,131.3438 Q803.6563,131.0781 803.0313,131.0781 Q801.6875,131.0781 801,132.1406 Q800.3125,133.2031 800.3125,135.3125 Q800.3125,137.4063 801,138.4844 Q801.6875,139.5469 803.0313,139.5469 Q803.6563,139.5469 804.25,139.2813 Q804.8438,139 805.4844,138.4219 L805.4844,141.1406 Z " fill="#000000"/><text fill="#000000" font-family="sans-serif" font-size="14" lengthAdjust="spacing" textLength="122" x="816.5" y="140.3467">CompositePlotter</text><line style="stroke:#181818;stroke-width:0.5;" x1="788.5" x2="940.5" y1="151.5" y2="151.5"/><line style="stroke:#181818;stroke-width:0.5;" x1="788.5" x2="940.5" y1="159.5" y2="159.5"/></g><!--class SingleCompositePlotter--><g id="elem_SingleCompositePlotter"><rect codeLine="32" fill="#F1F1F1" height="48" id="SingleCompositePlotter" rx="2.5" ry="2.5" style="stroke:#181818;stroke-width:0.5;" width="198" x="799.5" y="232"/><ellipse cx="814.5" cy="248" fill="#ADD1B2" rx="11" ry="11" style="stroke:#181818;stroke-width:1.0;"/><path d="M817.4844,253.6406 Q816.9063,253.9375 816.2656,254.0781 Q815.625,254.2344 814.9219,254.2344 Q812.4063,254.2344 811.0781,252.5938 Q809.7656,250.9375 809.7656,247.8125 Q809.7656,244.6719 811.0781,243.0313 Q812.4063,241.375 814.9219,241.375 Q815.625,241.375 816.2656,241.5313 Q816.9219,241.6719 817.4844,241.9688 L817.4844,244.6875 Q816.8438,244.1094 816.25,243.8438 Q815.6563,243.5781 815.0313,243.5781 Q813.6875,243.5781 813,244.6406 Q812.3125,245.7031 812.3125,247.8125 Q812.3125,249.9063 813,250.9844 Q813.6875,252.0469 815.0313,252.0469 Q815.6563,252.0469 816.25,251.7813 Q816.8438,251.5 817.4844,250.9219 L817.4844,253.6406 Z " fill="#000000"/><text fill="#000000" font-family="sans-serif" font-size="14" lengthAdjust="spacing" textLength="166" x="828.5" y="252.8467">SingleCompositePlotter</text><line style="stroke:#181818;stroke-width:0.5;" x1="800.5" x2="996.5" y1="264" y2="264"/><line style="stroke:#181818;stroke-width:0.5;" x1="800.5" x2="996.5" y1="272" y2="272"/></g><!--class Saver--><g id="elem_Saver"><rect codeLine="35" fill="#F1F1F1" height="48" id="Saver" rx="2.5" ry="2.5" style="stroke:#181818;stroke-width:0.5;" width="73" x="169" y="7"/><ellipse cx="184" cy="23" fill="#ADD1B2" rx="11" ry="11" style="stroke:#181818;stroke-width:1.0;"/><path d="M186.9844,28.6406 Q186.4063,28.9375 185.7656,29.0781 Q185.125,29.2344 184.4219,29.2344 Q181.9063,29.2344 180.5781,27.5938 Q179.2656,25.9375 179.2656,22.8125 Q179.2656,19.6719 180.5781,18.0313 Q181.9063,16.375 184.4219,16.375 Q185.125,16.375 185.7656,16.5313 Q186.4219,16.6719 186.9844,16.9688 L186.9844,19.6875 Q186.3438,19.1094 185.75,18.8438 Q185.1563,18.5781 184.5313,18.5781 Q183.1875,18.5781 182.5,19.6406 Q181.8125,20.7031 181.8125,22.8125 Q181.8125,24.9063 182.5,25.9844 Q183.1875,27.0469 184.5313,27.0469 Q185.1563,27.0469 185.75,26.7813 Q186.3438,26.5 186.9844,25.9219 L186.9844,28.6406 Z " fill="#000000"/><text fill="#000000" font-family="sans-serif" font-size="14" lengthAdjust="spacing" textLength="41" x="198" y="27.8467">Saver</text><line style="stroke:#181818;stroke-width:0.5;" x1="170" x2="241" y1="39" y2="39"/><line style="stroke:#181818;stroke-width:0.5;" x1="170" x2="241" y1="47" y2="47"/></g><!--class PlotProperties--><g id="elem_PlotProperties"><rect codeLine="43" fill="#F1F1F1" height="48" id="PlotProperties" rx="2.5" ry="2.5" style="stroke:#181818;stroke-width:0.5;" width="130" x="277.5" y="7"/><ellipse cx="292.5" cy="23" fill="#ADD1B2" rx="11" ry="11" style="stroke:#181818;stroke-width:1.0;"/><path d="M295.4844,28.6406 Q294.9063,28.9375 294.2656,29.0781 Q293.625,29.2344 292.9219,29.2344 Q290.4063,29.2344 289.0781,27.5938 Q287.7656,25.9375 287.7656,22.8125 Q287.7656,19.6719 289.0781,18.0313 Q290.4063,16.375 292.9219,16.375 Q293.625,16.375 294.2656,16.5313 Q294.9219,16.6719 295.4844,16.9688 L295.4844,19.6875 Q294.8438,19.1094 294.25,18.8438 Q293.6563,18.5781 293.0313,18.5781 Q291.6875,18.5781 291,19.6406 Q290.3125,20.7031 290.3125,22.8125 Q290.3125,24.9063 291,25.9844 Q291.6875,27.0469 293.0313,27.0469 Q293.6563,27.0469 294.25,26.7813 Q294.8438,26.5 295.4844,25.9219 L295.4844,28.6406 Z " fill="#000000"/><text fill="#000000" font-family="sans-serif" font-size="14" lengthAdjust="spacing" textLength="98" x="306.5" y="27.8467">PlotProperties</text><line style="stroke:#181818;stroke-width:0.5;" x1="278.5" x2="406.5" y1="39" y2="39"/><line style="stroke:#181818;stroke-width:0.5;" x1="278.5" x2="406.5" y1="47" y2="47"/></g><!--class Caption--><g id="elem_Caption"><rect codeLine="40" fill="#F1F1F1" height="48" id="Caption" rx="2.5" ry="2.5" style="stroke:#181818;stroke-width:0.5;" width="87" x="722" y="7"/><ellipse cx="737" cy="23" fill="#ADD1B2" rx="11" ry="11" style="stroke:#181818;stroke-width:1.0;"/><path d="M739.9844,28.6406 Q739.4063,28.9375 738.7656,29.0781 Q738.125,29.2344 737.4219,29.2344 Q734.9063,29.2344 733.5781,27.5938 Q732.2656,25.9375 732.2656,22.8125 Q732.2656,19.6719 733.5781,18.0313 Q734.9063,16.375 737.4219,16.375 Q738.125,16.375 738.7656,16.5313 Q739.4219,16.6719 739.9844,16.9688 L739.9844,19.6875 Q739.3438,19.1094 738.75,18.8438 Q738.1563,18.5781 737.5313,18.5781 Q736.1875,18.5781 735.5,19.6406 Q734.8125,20.7031 734.8125,22.8125 Q734.8125,24.9063 735.5,25.9844 Q736.1875,27.0469 737.5313,27.0469 Q738.1563,27.0469 738.75,26.7813 Q739.3438,26.5 739.9844,25.9219 L739.9844,28.6406 Z " fill="#000000"/><text fill="#000000" font-family="sans-serif" font-size="14" lengthAdjust="spacing" textLength="55" x="751" y="27.8467">Caption</text><line style="stroke:#181818;stroke-width:0.5;" x1="723" x2="808" y1="39" y2="39"/><line style="stroke:#181818;stroke-width:0.5;" x1="723" x2="808" y1="47" y2="47"/></g><g id="elem_GMN27"><path d="M147.5,116 L147.5,171.3984 A0,0 0 0 0 147.5,171.3984 L401.5,171.3984 A0,0 0 0 0 401.5,171.3984 L401.5,126 L391.5,116 L294.89,116 L328.24,55.16 L286.89,116 L147.5,116 A0,0 0 0 0 147.5,116 " fill="#FEFFDD" style="stroke:#181818;stroke-width:0.5;"/><path d="M391.5,116 L391.5,126 L401.5,126 L391.5,116 " fill="#FEFFDD" style="stroke:#181818;stroke-width:0.5;"/><text fill="#000000" font-family="sans-serif" font-size="13" lengthAdjust="spacing" textLength="233" x="153.5" y="133.0669">Each Plotter has specific properties.</text><text fill="#000000" font-family="sans-serif" font-size="13" lengthAdjust="spacing" textLength="230" x="153.5" y="148.1997">See separate diagram for hierarchy</text><text fill="#000000" font-family="sans-serif" font-size="13" lengthAdjust="spacing" textLength="164" x="153.5" y="163.3325">of PlotProperties classes.</text></g><!--reverse link Plotter to SinglePlotter--><g id="link_Plotter_SinglePlotter"><path d="M565.1855,68.4457 C547.9455,87.3057 535.88,100.52 518.65,119.37 " fill="none" id="Plotter-backto-SinglePlotter" style="stroke:#181818;stroke-width:1.0;"/><polygon fill="none" points="577.33,55.16,560.7569,64.3975,569.614,72.4939,577.33,55.16" style="stroke:#181818;stroke-width:1.0;"/></g><!--reverse link Plotter to MultiPlotter--><g id="link_Plotter_MultiPlotter"><path d="M620.9393,70.7373 C631.8593,89.5973 638.18,100.52 649.1,119.37 " fill="none" id="Plotter-backto-MultiPlotter" style="stroke:#181818;stroke-width:1.0;"/><polygon fill="none" points="611.92,55.16,615.7469,73.7437,626.1317,67.7309,611.92,55.16" style="stroke:#181818;stroke-width:1.0;"/></g><!--reverse link MultiPlotter to MultiPlotter1D--><g id="link_MultiPlotter_MultiPlotter1D"><path d="M675.6222,184.7758 C681.7622,203.6358 684.82,213.02 690.96,231.87 " fill="none" id="MultiPlotter-backto-MultiPlotter1D" style="stroke:#181818;stroke-width:1.0;"/><polygon fill="none" points="670.05,167.66,669.9169,186.6332,681.3274,182.9184,670.05,167.66" style="stroke:#181818;stroke-width:1.0;"/></g><!--reverse link SinglePlotter1D to MultiDeviceDataPlotter1D--><g id="link_SinglePlotter1D_MultiDeviceDataPlotter1D"><path d="M114.5,298.22 C114.5,316.16 114.5,322.89 114.5,340.83 " fill="none" id="SinglePlotter1D-backto-MultiDeviceDataPlotter1D" style="stroke:#181818;stroke-width:1.0;"/><polygon fill="none" points="114.5,280.22,108.5,298.22,120.5,298.22,114.5,280.22" style="stroke:#181818;stroke-width:1.0;"/></g><!--reverse link MultiPlotter1D to MultiPlotter1DStacked--><g id="link_MultiPlotter1D_MultiPlotter1DStacked"><path d="M698.5,298.22 C698.5,316.16 698.5,322.89 698.5,340.83 " fill="none" id="MultiPlotter1D-backto-MultiPlotter1DStacked" style="stroke:#181818;stroke-width:1.0;"/><polygon fill="none" points="698.5,280.22,692.5,298.22,704.5,298.22,698.5,280.22" style="stroke:#181818;stroke-width:1.0;"/></g><!--reverse link SinglePlotter to SinglePlotter1D--><g id="link_SinglePlotter_SinglePlotter1D"><path d="M419.236,170.9168 C413.216,172.8668 424.31,169.22 418.5,171 C375.23,184.22 261.15,215.38 185.71,235.8 " fill="none" id="SinglePlotter-backto-SinglePlotter1D" style="stroke:#181818;stroke-width:1.0;"/><polygon fill="none" points="436.36,165.37,417.387,165.2088,421.0849,176.6248,436.36,165.37" style="stroke:#181818;stroke-width:1.0;"/></g><!--reverse link SinglePlotter to SinglePlotter2D--><g id="link_SinglePlotter_SinglePlotter2D"><path d="M438.7072,176.0372 C403.4472,194.9472 369.62,213.1 334.38,232 " fill="none" id="SinglePlotter-backto-SinglePlotter2D" style="stroke:#181818;stroke-width:1.0;"/><polygon fill="none" points="454.57,167.53,435.8715,170.7496,441.543,181.3248,454.57,167.53" style="stroke:#181818;stroke-width:1.0;"/></g><!--reverse link SinglePlotter to SinglePlotter2DStacked--><g id="link_SinglePlotter_SinglePlotter2DStacked"><path d="M497.5,185.66 C497.5,204.52 497.5,213.02 497.5,231.87 " fill="none" id="SinglePlotter-backto-SinglePlotter2DStacked" style="stroke:#181818;stroke-width:1.0;"/><polygon fill="none" points="497.5,167.66,491.5,185.66,503.5,185.66,497.5,167.66" style="stroke:#181818;stroke-width:1.0;"/></g><!--reverse link Plotter to CompositePlotter--><g id="link_Plotter_CompositePlotter"><path d="M654.3714,55.2087 C699.6014,74.0087 757.65,98.11 808.86,119.39 " fill="none" id="Plotter-backto-CompositePlotter" style="stroke:#181818;stroke-width:1.0;"/><polygon fill="none" points="637.75,48.3,652.0685,60.7492,656.6743,49.6683,637.75,48.3" style="stroke:#181818;stroke-width:1.0;"/></g><!--reverse link CompositePlotter to SingleCompositePlotter--><g id="link_CompositePlotter_SingleCompositePlotter"><path d="M876.921,184.8648 C882.721,203.7248 885.58,213.02 891.38,231.87 " fill="none" id="CompositePlotter-backto-SingleCompositePlotter" style="stroke:#181818;stroke-width:1.0;"/><polygon fill="none" points="871.63,167.66,871.186,186.6285,882.6559,183.1012,871.63,167.66" style="stroke:#181818;stroke-width:1.0;"/></g><!--link Saver to PlotProperties--><!--link PlotProperties to Plotter--><g id="link_PlotProperties_Plotter"><path codeLine="52" d="M407.76,31 C455.61,31 507,31 547.28,31 " fill="none" id="PlotProperties-to-Plotter" style="stroke:#181818;stroke-width:1.0;"/><polygon fill="#181818" points="559.28,31,553.28,27,547.28,31,553.28,35,559.28,31" style="stroke:#181818;stroke-width:1.0;"/><text fill="#000000" font-family="sans-serif" font-size="13" lengthAdjust="spacing" textLength="66" x="450.5" y="24.0669">properties</text></g><!--reverse link Plotter to Caption--><g id="link_Plotter_Caption"><path codeLine="53" d="M649.65,31 C674.91,31 695.8,31 721.89,31 " fill="none" id="Plotter-backto-Caption" style="stroke:#181818;stroke-width:1.0;"/><polygon fill="#181818" points="637.65,31,643.65,35,649.65,31,643.65,27,637.65,31" style="stroke:#181818;stroke-width:1.0;"/><text fill="#000000" font-family="sans-serif" font-size="13" lengthAdjust="spacing" textLength="48" x="655.75" y="24.0669">caption</text></g><!--SRC=[bP8nQyCm48Lt_OgR0owqOuOkTST2m6FfS97EyL7R4j8rj9J-zoes5hOSXzQJk7lVUq_2U0pYKGle5aE0Gsj5oCEt-b4AbxkA-rDBau8-XNfpctZvQ8Ll0clTVPcK2poNbtHcJIKAhi55qpZVZAe4zJkPgubBBhUy6hK9FFmVoAjjSa-sSpQmq1yUUZJP95QBEOhdQJ0UYzU6ZQ7-xN58EdZho0jJICNG2Tj-Rh8KZflU2i4nvjaER9rxGVoUKJVfDWq628uqrwp19U7TeAo88913Zz7JC9uyTb3RI35vzBhv6cIhcF5_lRZ4TxWKKYeJ5BlKO3-BLTDmLwJxxa6Ffry0]--></g></svg>