<?xml version="1.0" encoding="us-ascii" standalone="no"?><svg xmlns="http://www.w3.org/2000/svg" xmlns:xlink="http://www.w3.org/1999/xlink" contentStyleType="text/css" height="1056px" preserveAspectRatio="none" style="width:1025px;height:1056px;background:#FFFFFF;" version="1.1" viewBox="0 0 1025 1056" width="1025px" zoomAndPan="magnify"><defs/><g><!--class Plotter--><g id="elem_Plotter"><rect codeLine="2" fill="#F1F1F1" height="373.9375" id="Plotter" rx="2.5" ry="2.5" style="stroke:#181818;stroke-width:0.5;" width="190" x="527.5" y="7"/><ellipse cx="595.25" cy="23" fill="#ADD1B2" rx="11" ry="11" style="stroke:#181818;stroke-width:1.0;"/><path d="M598.2344,28.6406 Q597.6563,28.9375 597.0156,29.0781 Q596.375,29.2344 595.6719,29.2344 Q593.1563,29.2344 591.8281,27.5938 Q590.5156,25.9375 590.5156,22.8125 Q590.5156,19.6719 591.8281,18.0313 Q593.1563,16.375 595.6719,16.375 Q596.375,16.375 597.0156,16.5313 Q597.6719,16.6719 598.2344,16.9688 L598.2344,19.6875 Q597.5938,19.1094 597,18.8438 Q596.4063,18.5781 595.7813,18.5781 Q594.4375,18.5781 593.75,19.6406 Q593.0625,20.7031 593.0625,22.8125 Q593.0625,24.9063 593.75,25.9844 Q594.4375,27.0469 595.7813,27.0469 Q596.4063,27.0469 597,26.7813 Q597.5938,26.5 598.2344,25.9219 L598.2344,28.6406 Z " fill="#000000"/><text fill="#000000" font-family="sans-serif" font-size="14" lengthAdjust="spacing" textLength="46" x="615.75" y="27.8467">Plotter</text><line style="stroke:#181818;stroke-width:0.5;" x1="528.5" x2="716.5" y1="39" y2="39"/><text fill="#000000" font-family="sans-serif" font-size="14" lengthAdjust="spacing" textLength="117" x="533.5" y="55.9951">annotations : list</text><text fill="#000000" font-family="sans-serif" font-size="14" lengthAdjust="spacing" textLength="17" x="533.5" y="72.292">ax</text><text fill="#000000" font-family="sans-serif" font-size="14" lengthAdjust="spacing" textLength="118" x="533.5" y="88.5889">axes : NoneType</text><text fill="#000000" font-family="sans-serif" font-size="14" lengthAdjust="spacing" textLength="53" x="533.5" y="104.8857">caption</text><text fill="#000000" font-family="sans-serif" font-size="14" lengthAdjust="spacing" textLength="99" x="533.5" y="121.1826">comment : str</text><text fill="#000000" font-family="sans-serif" font-size="14" lengthAdjust="spacing" textLength="110" x="533.5" y="137.4795">description : str</text><text fill="#000000" font-family="sans-serif" font-size="14" lengthAdjust="spacing" textLength="18" x="533.5" y="153.7764">fig</text><text fill="#000000" font-family="sans-serif" font-size="14" lengthAdjust="spacing" textLength="127" x="533.5" y="170.0732">figure : NoneType</text><text fill="#000000" font-family="sans-serif" font-size="14" lengthAdjust="spacing" textLength="94" x="533.5" y="186.3701">filename : str</text><text fill="#000000" font-family="sans-serif" font-size="14" lengthAdjust="spacing" textLength="66" x="533.5" y="202.667">label : str</text><text fill="#000000" font-family="sans-serif" font-size="14" lengthAdjust="spacing" textLength="134" x="533.5" y="218.9639">legend : NoneType</text><text fill="#000000" font-family="sans-serif" font-size="14" lengthAdjust="spacing" textLength="72" x="533.5" y="235.2607">name : str</text><text fill="#000000" font-family="sans-serif" font-size="14" lengthAdjust="spacing" textLength="122" x="533.5" y="251.5576">parameters : dict</text><text fill="#000000" font-family="sans-serif" font-size="14" lengthAdjust="spacing" textLength="73" x="533.5" y="267.8545">properties</text><text fill="#000000" font-family="sans-serif" font-size="14" lengthAdjust="spacing" textLength="64" x="533.5" y="284.1514">style : str</text><line style="stroke:#181818;stroke-width:0.5;" x1="528.5" x2="716.5" y1="291.4531" y2="291.4531"/><text fill="#000000" font-family="sans-serif" font-size="14" lengthAdjust="spacing" textLength="151" x="533.5" y="308.4482">annotate(annotation)</text><text fill="#000000" font-family="sans-serif" font-size="14" lengthAdjust="spacing" textLength="116" x="533.5" y="324.7451">applicable(data)</text><text fill="#000000" font-family="sans-serif" font-size="14" lengthAdjust="spacing" textLength="178" x="533.5" y="341.042">delete_annotation(index)</text><text fill="#000000" font-family="sans-serif" font-size="14" lengthAdjust="spacing" textLength="37" x="533.5" y="357.3389">plot()</text><text fill="#000000" font-family="sans-serif" font-size="14" lengthAdjust="spacing" textLength="82" x="533.5" y="373.6357">save(saver)</text></g><!--class SinglePlotter--><g id="elem_SinglePlotter"><rect codeLine="25" fill="#F1F1F1" height="162.0781" id="SinglePlotter" rx="2.5" ry="2.5" style="stroke:#181818;stroke-width:0.5;" width="204" x="410.5" y="450"/><ellipse cx="463.25" cy="466" fill="#ADD1B2" rx="11" ry="11" style="stroke:#181818;stroke-width:1.0;"/><path d="M466.2344,471.6406 Q465.6563,471.9375 465.0156,472.0781 Q464.375,472.2344 463.6719,472.2344 Q461.1563,472.2344 459.8281,470.5938 Q458.5156,468.9375 458.5156,465.8125 Q458.5156,462.6719 459.8281,461.0313 Q461.1563,459.375 463.6719,459.375 Q464.375,459.375 465.0156,459.5313 Q465.6719,459.6719 466.2344,459.9688 L466.2344,462.6875 Q465.5938,462.1094 465,461.8438 Q464.4063,461.5781 463.7813,461.5781 Q462.4375,461.5781 461.75,462.6406 Q461.0625,463.7031 461.0625,465.8125 Q461.0625,467.9063 461.75,468.9844 Q462.4375,470.0469 463.7813,470.0469 Q464.4063,470.0469 465,469.7813 Q465.5938,469.5 466.2344,468.9219 L466.2344,471.6406 Z " fill="#000000"/><text fill="#000000" font-family="sans-serif" font-size="14" lengthAdjust="spacing" textLength="90" x="483.75" y="470.8467">SinglePlotter</text><line style="stroke:#181818;stroke-width:0.5;" x1="411.5" x2="613.5" y1="482" y2="482"/><text fill="#000000" font-family="sans-serif" font-size="14" lengthAdjust="spacing" textLength="117" x="416.5" y="498.9951">data : NoneType</text><text fill="#000000" font-family="sans-serif" font-size="14" lengthAdjust="spacing" textLength="138" x="416.5" y="515.292">dataset : NoneType</text><text fill="#000000" font-family="sans-serif" font-size="14" lengthAdjust="spacing" textLength="110" x="416.5" y="531.5889">description : str</text><text fill="#000000" font-family="sans-serif" font-size="14" lengthAdjust="spacing" textLength="142" x="416.5" y="547.8857">drawing : NoneType</text><text fill="#000000" font-family="sans-serif" font-size="14" lengthAdjust="spacing" textLength="73" x="416.5" y="564.1826">properties</text><line style="stroke:#181818;stroke-width:0.5;" x1="411.5" x2="613.5" y1="571.4844" y2="571.4844"/><text fill="#000000" font-family="sans-serif" font-size="14" lengthAdjust="spacing" textLength="165" x="416.5" y="588.4795">create_history_record()</text><text fill="#000000" font-family="sans-serif" font-size="14" lengthAdjust="spacing" textLength="192" x="416.5" y="604.7764">plot(dataset, from_dataset)</text></g><!--class MultiPlotter--><g id="elem_MultiPlotter"><rect codeLine="35" fill="#F1F1F1" height="129.4844" id="MultiPlotter" rx="2.5" ry="2.5" style="stroke:#181818;stroke-width:0.5;" width="122" x="650.5" y="466.5"/><ellipse cx="670" cy="482.5" fill="#ADD1B2" rx="11" ry="11" style="stroke:#181818;stroke-width:1.0;"/><path d="M672.9844,488.1406 Q672.4063,488.4375 671.7656,488.5781 Q671.125,488.7344 670.4219,488.7344 Q667.9063,488.7344 666.5781,487.0938 Q665.2656,485.4375 665.2656,482.3125 Q665.2656,479.1719 666.5781,477.5313 Q667.9063,475.875 670.4219,475.875 Q671.125,475.875 671.7656,476.0313 Q672.4219,476.1719 672.9844,476.4688 L672.9844,479.1875 Q672.3438,478.6094 671.75,478.3438 Q671.1563,478.0781 670.5313,478.0781 Q669.1875,478.0781 668.5,479.1406 Q667.8125,480.2031 667.8125,482.3125 Q667.8125,484.4063 668.5,485.4844 Q669.1875,486.5469 670.5313,486.5469 Q671.1563,486.5469 671.75,486.2813 Q672.3438,486 672.9844,485.4219 L672.9844,488.1406 Z " fill="#000000"/><text fill="#000000" font-family="sans-serif" font-size="14" lengthAdjust="spacing" textLength="80" x="685" y="487.3467">MultiPlotter</text><line style="stroke:#181818;stroke-width:0.5;" x1="651.5" x2="771.5" y1="498.5" y2="498.5"/><text fill="#000000" font-family="sans-serif" font-size="14" lengthAdjust="spacing" textLength="65" x="656.5" y="515.4951">data : list</text><text fill="#000000" font-family="sans-serif" font-size="14" lengthAdjust="spacing" textLength="93" x="656.5" y="531.792">datasets : list</text><text fill="#000000" font-family="sans-serif" font-size="14" lengthAdjust="spacing" textLength="110" x="656.5" y="548.0889">description : str</text><text fill="#000000" font-family="sans-serif" font-size="14" lengthAdjust="spacing" textLength="73" x="656.5" y="564.3857">properties</text><line style="stroke:#181818;stroke-width:0.5;" x1="651.5" x2="771.5" y1="571.6875" y2="571.6875"/><text fill="#000000" font-family="sans-serif" font-size="14" lengthAdjust="spacing" textLength="37" x="656.5" y="588.6826">plot()</text></g><!--class MultiPlotter1D--><g id="elem_MultiPlotter1D"><rect codeLine="43" fill="#F1F1F1" height="145.7813" id="MultiPlotter1D" rx="2.5" ry="2.5" style="stroke:#181818;stroke-width:0.5;" width="132" x="647.5" y="689"/><ellipse cx="662.5" cy="705" fill="#ADD1B2" rx="11" ry="11" style="stroke:#181818;stroke-width:1.0;"/><path d="M665.4844,710.6406 Q664.9063,710.9375 664.2656,711.0781 Q663.625,711.2344 662.9219,711.2344 Q660.4063,711.2344 659.0781,709.5938 Q657.7656,707.9375 657.7656,704.8125 Q657.7656,701.6719 659.0781,700.0313 Q660.4063,698.375 662.9219,698.375 Q663.625,698.375 664.2656,698.5313 Q664.9219,698.6719 665.4844,698.9688 L665.4844,701.6875 Q664.8438,701.1094 664.25,700.8438 Q663.6563,700.5781 663.0313,700.5781 Q661.6875,700.5781 661,701.6406 Q660.3125,702.7031 660.3125,704.8125 Q660.3125,706.9063 661,707.9844 Q661.6875,709.0469 663.0313,709.0469 Q663.6563,709.0469 664.25,708.7813 Q664.8438,708.5 665.4844,707.9219 L665.4844,710.6406 Z " fill="#000000"/><text fill="#000000" font-family="sans-serif" font-size="14" lengthAdjust="spacing" textLength="100" x="676.5" y="709.8467">MultiPlotter1D</text><line style="stroke:#181818;stroke-width:0.5;" x1="648.5" x2="778.5" y1="721" y2="721"/><text fill="#000000" font-family="sans-serif" font-size="14" lengthAdjust="spacing" textLength="100" x="653.5" y="737.9951">allowed_types</text><text fill="#000000" font-family="sans-serif" font-size="14" lengthAdjust="spacing" textLength="110" x="653.5" y="754.292">description : str</text><text fill="#000000" font-family="sans-serif" font-size="14" lengthAdjust="spacing" textLength="97" x="653.5" y="770.5889">drawings : list</text><text fill="#000000" font-family="sans-serif" font-size="14" lengthAdjust="spacing" textLength="73" x="653.5" y="786.8857">properties</text><text fill="#000000" font-family="sans-serif" font-size="14" lengthAdjust="spacing" textLength="31" x="653.5" y="803.1826">type</text><line style="stroke:#181818;stroke-width:0.5;" x1="648.5" x2="778.5" y1="810.4844" y2="810.4844"/><text fill="#000000" font-family="sans-serif" font-size="14" lengthAdjust="spacing" textLength="116" x="653.5" y="827.4795">applicable(data)</text></g><!--class MultiDeviceDataPlotter1D--><g id="elem_MultiDeviceDataPlotter1D"><rect codeLine="52" fill="#F1F1F1" height="145.7813" id="MultiDeviceDataPlotter1D" rx="2.5" ry="2.5" style="stroke:#181818;stroke-width:0.5;" width="215" x="7" y="904"/><ellipse cx="22" cy="920" fill="#ADD1B2" rx="11" ry="11" style="stroke:#181818;stroke-width:1.0;"/><path d="M24.9844,925.6406 Q24.4063,925.9375 23.7656,926.0781 Q23.125,926.2344 22.4219,926.2344 Q19.9063,926.2344 18.5781,924.5938 Q17.2656,922.9375 17.2656,919.8125 Q17.2656,916.6719 18.5781,915.0313 Q19.9063,913.375 22.4219,913.375 Q23.125,913.375 23.7656,913.5313 Q24.4219,913.6719 24.9844,913.9688 L24.9844,916.6875 Q24.3438,916.1094 23.75,915.8438 Q23.1563,915.5781 22.5313,915.5781 Q21.1875,915.5781 20.5,916.6406 Q19.8125,917.7031 19.8125,919.8125 Q19.8125,921.9063 20.5,922.9844 Q21.1875,924.0469 22.5313,924.0469 Q23.1563,924.0469 23.75,923.7813 Q24.3438,923.5 24.9844,922.9219 L24.9844,925.6406 Z " fill="#000000"/><text fill="#000000" font-family="sans-serif" font-size="14" lengthAdjust="spacing" textLength="183" x="36" y="924.8467">MultiDeviceDataPlotter1D</text><line style="stroke:#181818;stroke-width:0.5;" x1="8" x2="221" y1="936" y2="936"/><text fill="#000000" font-family="sans-serif" font-size="14" lengthAdjust="spacing" textLength="65" x="13" y="952.9951">data : list</text><text fill="#000000" font-family="sans-serif" font-size="14" lengthAdjust="spacing" textLength="110" x="13" y="969.292">description : str</text><text fill="#000000" font-family="sans-serif" font-size="14" lengthAdjust="spacing" textLength="90" x="13" y="985.5889">drawing : list</text><text fill="#000000" font-family="sans-serif" font-size="14" lengthAdjust="spacing" textLength="64" x="13" y="1001.8857">drawings</text><text fill="#000000" font-family="sans-serif" font-size="14" lengthAdjust="spacing" textLength="73" x="13" y="1018.1826">properties</text><line style="stroke:#181818;stroke-width:0.5;" x1="8" x2="221" y1="1025.4844" y2="1025.4844"/><text fill="#000000" font-family="sans-serif" font-size="14" lengthAdjust="spacing" textLength="116" x="13" y="1042.4795">applicable(data)</text></g><!--class SinglePlotter1D--><g id="elem_SinglePlotter1D"><rect codeLine="66" fill="#F1F1F1" height="145.7813" id="SinglePlotter1D" rx="2.5" ry="2.5" style="stroke:#181818;stroke-width:0.5;" width="142" x="43.5" y="689"/><ellipse cx="58.5" cy="705" fill="#ADD1B2" rx="11" ry="11" style="stroke:#181818;stroke-width:1.0;"/><path d="M61.4844,710.6406 Q60.9063,710.9375 60.2656,711.0781 Q59.625,711.2344 58.9219,711.2344 Q56.4063,711.2344 55.0781,709.5938 Q53.7656,707.9375 53.7656,704.8125 Q53.7656,701.6719 55.0781,700.0313 Q56.4063,698.375 58.9219,698.375 Q59.625,698.375 60.2656,698.5313 Q60.9219,698.6719 61.4844,698.9688 L61.4844,701.6875 Q60.8438,701.1094 60.25,700.8438 Q59.6563,700.5781 59.0313,700.5781 Q57.6875,700.5781 57,701.6406 Q56.3125,702.7031 56.3125,704.8125 Q56.3125,706.9063 57,707.9844 Q57.6875,709.0469 59.0313,709.0469 Q59.6563,709.0469 60.25,708.7813 Q60.8438,708.5 61.4844,707.9219 L61.4844,710.6406 Z " fill="#000000"/><text fill="#000000" font-family="sans-serif" font-size="14" lengthAdjust="spacing" textLength="110" x="72.5" y="709.8467">SinglePlotter1D</text><line style="stroke:#181818;stroke-width:0.5;" x1="44.5" x2="184.5" y1="721" y2="721"/><text fill="#000000" font-family="sans-serif" font-size="14" lengthAdjust="spacing" textLength="100" x="49.5" y="737.9951">allowed_types</text><text fill="#000000" font-family="sans-serif" font-size="14" lengthAdjust="spacing" textLength="110" x="49.5" y="754.292">description : str</text><text fill="#000000" font-family="sans-serif" font-size="14" lengthAdjust="spacing" textLength="57" x="49.5" y="770.5889">drawing</text><text fill="#000000" font-family="sans-serif" font-size="14" lengthAdjust="spacing" textLength="73" x="49.5" y="786.8857">properties</text><text fill="#000000" font-family="sans-serif" font-size="14" lengthAdjust="spacing" textLength="31" x="49.5" y="803.1826">type</text><line style="stroke:#181818;stroke-width:0.5;" x1="44.5" x2="184.5" y1="810.4844" y2="810.4844"/><text fill="#000000" font-family="sans-serif" font-size="14" lengthAdjust="spacing" textLength="116" x="49.5" y="827.4795">applicable(data)</text></g><!--class MultiPlotter1DStacked--><g id="elem_MultiPlotter1DStacked"><rect codeLine="61" fill="#F1F1F1" height="80.5938" id="MultiPlotter1DStacked" rx="2.5" ry="2.5" style="stroke:#181818;stroke-width:0.5;" width="189" x="619" y="936.5"/><ellipse cx="634" cy="952.5" fill="#ADD1B2" rx="11" ry="11" style="stroke:#181818;stroke-width:1.0;"/><path d="M636.9844,958.1406 Q636.4063,958.4375 635.7656,958.5781 Q635.125,958.7344 634.4219,958.7344 Q631.9063,958.7344 630.5781,957.0938 Q629.2656,955.4375 629.2656,952.3125 Q629.2656,949.1719 630.5781,947.5313 Q631.9063,945.875 634.4219,945.875 Q635.125,945.875 635.7656,946.0313 Q636.4219,946.1719 636.9844,946.4688 L636.9844,949.1875 Q636.3438,948.6094 635.75,948.3438 Q635.1563,948.0781 634.5313,948.0781 Q633.1875,948.0781 632.5,949.1406 Q631.8125,950.2031 631.8125,952.3125 Q631.8125,954.4063 632.5,955.4844 Q633.1875,956.5469 634.5313,956.5469 Q635.1563,956.5469 635.75,956.2813 Q636.3438,956 636.9844,955.4219 L636.9844,958.1406 Z " fill="#000000"/><text fill="#000000" font-family="sans-serif" font-size="14" lengthAdjust="spacing" textLength="157" x="648" y="957.3467">MultiPlotter1DStacked</text><line style="stroke:#181818;stroke-width:0.5;" x1="620" x2="807" y1="968.5" y2="968.5"/><text fill="#000000" font-family="sans-serif" font-size="14" lengthAdjust="spacing" textLength="110" x="625" y="985.4951">description : str</text><text fill="#000000" font-family="sans-serif" font-size="14" lengthAdjust="spacing" textLength="97" x="625" y="1001.792">drawings : list</text><line style="stroke:#181818;stroke-width:0.5;" x1="620" x2="807" y1="1009.0938" y2="1009.0938"/></g><!--class SinglePlotter2D--><g id="elem_SinglePlotter2D"><rect codeLine="75" fill="#F1F1F1" height="162.0781" id="SinglePlotter2D" rx="2.5" ry="2.5" style="stroke:#181818;stroke-width:0.5;" width="157" x="221" y="681"/><ellipse cx="242.75" cy="697" fill="#ADD1B2" rx="11" ry="11" style="stroke:#181818;stroke-width:1.0;"/><path d="M245.7344,702.6406 Q245.1563,702.9375 244.5156,703.0781 Q243.875,703.2344 243.1719,703.2344 Q240.6563,703.2344 239.3281,701.5938 Q238.0156,699.9375 238.0156,696.8125 Q238.0156,693.6719 239.3281,692.0313 Q240.6563,690.375 243.1719,690.375 Q243.875,690.375 244.5156,690.5313 Q245.1719,690.6719 245.7344,690.9688 L245.7344,693.6875 Q245.0938,693.1094 244.5,692.8438 Q243.9063,692.5781 243.2813,692.5781 Q241.9375,692.5781 241.25,693.6406 Q240.5625,694.7031 240.5625,696.8125 Q240.5625,698.9063 241.25,699.9844 Q241.9375,701.0469 243.2813,701.0469 Q243.9063,701.0469 244.5,700.7813 Q245.0938,700.5 245.7344,699.9219 L245.7344,702.6406 Z " fill="#000000"/><text fill="#000000" font-family="sans-serif" font-size="14" lengthAdjust="spacing" textLength="110" x="258.25" y="701.8467">SinglePlotter2D</text><line style="stroke:#181818;stroke-width:0.5;" x1="222" x2="377" y1="713" y2="713"/><text fill="#000000" font-family="sans-serif" font-size="14" lengthAdjust="spacing" textLength="100" x="227" y="729.9951">allowed_types</text><text fill="#000000" font-family="sans-serif" font-size="14" lengthAdjust="spacing" textLength="145" x="227" y="746.292">colorbar : NoneType</text><text fill="#000000" font-family="sans-serif" font-size="14" lengthAdjust="spacing" textLength="110" x="227" y="762.5889">description : str</text><text fill="#000000" font-family="sans-serif" font-size="14" lengthAdjust="spacing" textLength="57" x="227" y="778.8857">drawing</text><text fill="#000000" font-family="sans-serif" font-size="14" lengthAdjust="spacing" textLength="73" x="227" y="795.1826">properties</text><text fill="#000000" font-family="sans-serif" font-size="14" lengthAdjust="spacing" textLength="31" x="227" y="811.4795">type</text><line style="stroke:#181818;stroke-width:0.5;" x1="222" x2="377" y1="818.7813" y2="818.7813"/><text fill="#000000" font-family="sans-serif" font-size="14" lengthAdjust="spacing" textLength="116" x="227" y="835.7764">applicable(data)</text></g><!--class SinglePlotter2DStacked--><g id="elem_SinglePlotter2DStacked"><rect codeLine="85" fill="#F1F1F1" height="145.7813" id="SinglePlotter2DStacked" rx="2.5" ry="2.5" style="stroke:#181818;stroke-width:0.5;" width="199" x="413" y="689"/><ellipse cx="428" cy="705" fill="#ADD1B2" rx="11" ry="11" style="stroke:#181818;stroke-width:1.0;"/><path d="M430.9844,710.6406 Q430.4063,710.9375 429.7656,711.0781 Q429.125,711.2344 428.4219,711.2344 Q425.9063,711.2344 424.5781,709.5938 Q423.2656,707.9375 423.2656,704.8125 Q423.2656,701.6719 424.5781,700.0313 Q425.9063,698.375 428.4219,698.375 Q429.125,698.375 429.7656,698.5313 Q430.4219,698.6719 430.9844,698.9688 L430.9844,701.6875 Q430.3438,701.1094 429.75,700.8438 Q429.1563,700.5781 428.5313,700.5781 Q427.1875,700.5781 426.5,701.6406 Q425.8125,702.7031 425.8125,704.8125 Q425.8125,706.9063 426.5,707.9844 Q427.1875,709.0469 428.5313,709.0469 Q429.1563,709.0469 429.75,708.7813 Q430.3438,708.5 430.9844,707.9219 L430.9844,710.6406 Z " fill="#000000"/><text fill="#000000" font-family="sans-serif" font-size="14" lengthAdjust="spacing" textLength="167" x="442" y="709.8467">SinglePlotter2DStacked</text><line style="stroke:#181818;stroke-width:0.5;" x1="414" x2="611" y1="721" y2="721"/><text fill="#000000" font-family="sans-serif" font-size="14" lengthAdjust="spacing" textLength="138" x="419" y="737.9951">dataset : NoneType</text><text fill="#000000" font-family="sans-serif" font-size="14" lengthAdjust="spacing" textLength="110" x="419" y="754.292">description : str</text><text fill="#000000" font-family="sans-serif" font-size="14" lengthAdjust="spacing" textLength="90" x="419" y="770.5889">drawing : list</text><text fill="#000000" font-family="sans-serif" font-size="14" lengthAdjust="spacing" textLength="64" x="419" y="786.8857">drawings</text><text fill="#000000" font-family="sans-serif" font-size="14" lengthAdjust="spacing" textLength="73" x="419" y="803.1826">properties</text><line style="stroke:#181818;stroke-width:0.5;" x1="414" x2="611" y1="810.4844" y2="810.4844"/><text fill="#000000" font-family="sans-serif" font-size="14" lengthAdjust="spacing" textLength="116" x="419" y="827.4795">applicable(data)</text></g><!--class CompositePlotter--><g id="elem_CompositePlotter"><rect codeLine="94" fill="#F1F1F1" height="178.375" id="CompositePlotter" rx="2.5" ry="2.5" style="stroke:#181818;stroke-width:0.5;" width="168" x="820.5" y="442"/><ellipse cx="841.8" cy="458" fill="#ADD1B2" rx="11" ry="11" style="stroke:#181818;stroke-width:1.0;"/><path d="M844.7844,463.6406 Q844.2063,463.9375 843.5656,464.0781 Q842.925,464.2344 842.2219,464.2344 Q839.7063,464.2344 838.3781,462.5938 Q837.0656,460.9375 837.0656,457.8125 Q837.0656,454.6719 838.3781,453.0313 Q839.7063,451.375 842.2219,451.375 Q842.925,451.375 843.5656,451.5313 Q844.2219,451.6719 844.7844,451.9688 L844.7844,454.6875 Q844.1438,454.1094 843.55,453.8438 Q842.9563,453.5781 842.3313,453.5781 Q840.9875,453.5781 840.3,454.6406 Q839.6125,455.7031 839.6125,457.8125 Q839.6125,459.9063 840.3,460.9844 Q840.9875,462.0469 842.3313,462.0469 Q842.9563,462.0469 843.55,461.7813 Q844.1438,461.5 844.7844,460.9219 L844.7844,463.6406 Z " fill="#000000"/><text fill="#000000" font-family="sans-serif" font-size="14" lengthAdjust="spacing" textLength="122" x="857.2" y="462.8467">CompositePlotter</text><line style="stroke:#181818;stroke-width:0.5;" x1="821.5" x2="987.5" y1="474" y2="474"/><text fill="#000000" font-family="sans-serif" font-size="14" lengthAdjust="spacing" textLength="66" x="826.5" y="490.9951">axes : list</text><text fill="#000000" font-family="sans-serif" font-size="14" lengthAdjust="spacing" textLength="136" x="826.5" y="507.292">axes_positions : list</text><text fill="#000000" font-family="sans-serif" font-size="14" lengthAdjust="spacing" textLength="110" x="826.5" y="523.5889">description : str</text><text fill="#000000" font-family="sans-serif" font-size="14" lengthAdjust="spacing" textLength="42" x="826.5" y="539.8857">figure</text><text fill="#000000" font-family="sans-serif" font-size="14" lengthAdjust="spacing" textLength="149" x="826.5" y="556.1826">grid_dimensions : list</text><text fill="#000000" font-family="sans-serif" font-size="14" lengthAdjust="spacing" textLength="80" x="826.5" y="572.4795">plotter : list</text><text fill="#000000" font-family="sans-serif" font-size="14" lengthAdjust="spacing" textLength="73" x="826.5" y="588.7764">properties</text><text fill="#000000" font-family="sans-serif" font-size="14" lengthAdjust="spacing" textLength="156" x="826.5" y="605.0732">subplot_locations : list</text><line style="stroke:#181818;stroke-width:0.5;" x1="821.5" x2="987.5" y1="612.375" y2="612.375"/></g><!--class SingleCompositePlotter--><g id="elem_SingleCompositePlotter"><rect codeLine="105" fill="#F1F1F1" height="113.1875" id="SingleCompositePlotter" rx="2.5" ry="2.5" style="stroke:#181818;stroke-width:0.5;" width="204" x="814.5" y="705.5"/><ellipse cx="832.2" cy="721.5" fill="#ADD1B2" rx="11" ry="11" style="stroke:#181818;stroke-width:1.0;"/><path d="M835.1844,727.1406 Q834.6063,727.4375 833.9656,727.5781 Q833.325,727.7344 832.6219,727.7344 Q830.1063,727.7344 828.7781,726.0938 Q827.4656,724.4375 827.4656,721.3125 Q827.4656,718.1719 828.7781,716.5313 Q830.1063,714.875 832.6219,714.875 Q833.325,714.875 833.9656,715.0313 Q834.6219,715.1719 835.1844,715.4688 L835.1844,718.1875 Q834.5438,717.6094 833.95,717.3438 Q833.3563,717.0781 832.7313,717.0781 Q831.3875,717.0781 830.7,718.1406 Q830.0125,719.2031 830.0125,721.3125 Q830.0125,723.4063 830.7,724.4844 Q831.3875,725.5469 832.7313,725.5469 Q833.3563,725.5469 833.95,725.2813 Q834.5438,725 835.1844,724.4219 L835.1844,727.1406 Z " fill="#000000"/><text fill="#000000" font-family="sans-serif" font-size="14" lengthAdjust="spacing" textLength="166" x="846.8" y="726.3467">SingleCompositePlotter</text><line style="stroke:#181818;stroke-width:0.5;" x1="815.5" x2="1017.5" y1="737.5" y2="737.5"/><text fill="#000000" font-family="sans-serif" font-size="14" lengthAdjust="spacing" textLength="138" x="820.5" y="754.4951">dataset : NoneType</text><text fill="#000000" font-family="sans-serif" font-size="14" lengthAdjust="spacing" textLength="110" x="820.5" y="770.792">description : str</text><line style="stroke:#181818;stroke-width:0.5;" x1="815.5" x2="1017.5" y1="778.0938" y2="778.0938"/><text fill="#000000" font-family="sans-serif" font-size="14" lengthAdjust="spacing" textLength="165" x="820.5" y="795.0889">create_history_record()</text><text fill="#000000" font-family="sans-serif" font-size="14" lengthAdjust="spacing" textLength="192" x="820.5" y="811.3857">plot(dataset, from_dataset)</text></g><!--class Saver--><g id="elem_Saver"><rect codeLine="112" fill="#F1F1F1" height="113.1875" id="Saver" rx="2.5" ry="2.5" style="stroke:#181818;stroke-width:0.5;" width="186" x="23.5" y="137.5"/><ellipse cx="91.75" cy="153.5" fill="#ADD1B2" rx="11" ry="11" style="stroke:#181818;stroke-width:1.0;"/><path d="M94.7344,159.1406 Q94.1563,159.4375 93.5156,159.5781 Q92.875,159.7344 92.1719,159.7344 Q89.6563,159.7344 88.3281,158.0938 Q87.0156,156.4375 87.0156,153.3125 Q87.0156,150.1719 88.3281,148.5313 Q89.6563,146.875 92.1719,146.875 Q92.875,146.875 93.5156,147.0313 Q94.1719,147.1719 94.7344,147.4688 L94.7344,150.1875 Q94.0938,149.6094 93.5,149.3438 Q92.9063,149.0781 92.2813,149.0781 Q90.9375,149.0781 90.25,150.1406 Q89.5625,151.2031 89.5625,153.3125 Q89.5625,155.4063 90.25,156.4844 Q90.9375,157.5469 92.2813,157.5469 Q92.9063,157.5469 93.5,157.2813 Q94.0938,157 94.7344,156.4219 L94.7344,159.1406 Z " fill="#000000"/><text fill="#000000" font-family="sans-serif" font-size="14" lengthAdjust="spacing" textLength="41" x="112.25" y="158.3467">Saver</text><line style="stroke:#181818;stroke-width:0.5;" x1="24.5" x2="208.5" y1="169.5" y2="169.5"/><text fill="#000000" font-family="sans-serif" font-size="14" lengthAdjust="spacing" textLength="174" x="29.5" y="186.4951">filename : NoneType, str</text><text fill="#000000" font-family="sans-serif" font-size="14" lengthAdjust="spacing" textLength="122" x="29.5" y="202.792">parameters : dict</text><text fill="#000000" font-family="sans-serif" font-size="14" lengthAdjust="spacing" textLength="132" x="29.5" y="219.0889">plotter : NoneType</text><line style="stroke:#181818;stroke-width:0.5;" x1="24.5" x2="208.5" y1="226.3906" y2="226.3906"/><text fill="#000000" font-family="sans-serif" font-size="14" lengthAdjust="spacing" textLength="90" x="29.5" y="243.3857">save(plotter)</text></g><!--class PlotProperties--><g id="elem_PlotProperties"><rect codeLine="127" fill="#F1F1F1" height="113.1875" id="PlotProperties" rx="2.5" ry="2.5" style="stroke:#181818;stroke-width:0.5;" width="130" x="244.5" y="137.5"/><ellipse cx="259.5" cy="153.5" fill="#ADD1B2" rx="11" ry="11" style="stroke:#181818;stroke-width:1.0;"/><path d="M262.4844,159.1406 Q261.9063,159.4375 261.2656,159.5781 Q260.625,159.7344 259.9219,159.7344 Q257.4063,159.7344 256.0781,158.0938 Q254.7656,156.4375 254.7656,153.3125 Q254.7656,150.1719 256.0781,148.5313 Q257.4063,146.875 259.9219,146.875 Q260.625,146.875 261.2656,147.0313 Q261.9219,147.1719 262.4844,147.4688 L262.4844,150.1875 Q261.8438,149.6094 261.25,149.3438 Q260.6563,149.0781 260.0313,149.0781 Q258.6875,149.0781 258,150.1406 Q257.3125,151.2031 257.3125,153.3125 Q257.3125,155.4063 258,156.4844 Q258.6875,157.5469 260.0313,157.5469 Q260.6563,157.5469 261.25,157.2813 Q261.8438,157 262.4844,156.4219 L262.4844,159.1406 Z " fill="#000000"/><text fill="#000000" font-family="sans-serif" font-size="14" lengthAdjust="spacing" textLength="98" x="273.5" y="158.3467">PlotProperties</text><line style="stroke:#181818;stroke-width:0.5;" x1="245.5" x2="373.5" y1="169.5" y2="169.5"/><text fill="#000000" font-family="sans-serif" font-size="14" lengthAdjust="spacing" textLength="42" x="250.5" y="186.4951">figure</text><text fill="#000000" font-family="sans-serif" font-size="14" lengthAdjust="spacing" textLength="49" x="250.5" y="202.792">legend</text><text fill="#000000" font-family="sans-serif" font-size="14" lengthAdjust="spacing" textLength="71" x="250.5" y="219.0889">zero_lines</text><line style="stroke:#181818;stroke-width:0.5;" x1="245.5" x2="373.5" y1="226.3906" y2="226.3906"/><text fill="#000000" font-family="sans-serif" font-size="14" lengthAdjust="spacing" textLength="96" x="250.5" y="243.3857">apply(plotter)</text></g><!--class Caption--><g id="elem_Caption"><rect codeLine="121" fill="#F1F1F1" height="96.8906" id="Caption" rx="2.5" ry="2.5" style="stroke:#181818;stroke-width:0.5;" width="128" x="802.5" y="145.5"/><ellipse cx="835.95" cy="161.5" fill="#ADD1B2" rx="11" ry="11" style="stroke:#181818;stroke-width:1.0;"/><path d="M838.9344,167.1406 Q838.3563,167.4375 837.7156,167.5781 Q837.075,167.7344 836.3719,167.7344 Q833.8563,167.7344 832.5281,166.0938 Q831.2156,164.4375 831.2156,161.3125 Q831.2156,158.1719 832.5281,156.5313 Q833.8563,154.875 836.3719,154.875 Q837.075,154.875 837.7156,155.0313 Q838.3719,155.1719 838.9344,155.4688 L838.9344,158.1875 Q838.2938,157.6094 837.7,157.3438 Q837.1063,157.0781 836.4813,157.0781 Q835.1375,157.0781 834.45,158.1406 Q833.7625,159.2031 833.7625,161.3125 Q833.7625,163.4063 834.45,164.4844 Q835.1375,165.5469 836.4813,165.5469 Q837.1063,165.5469 837.7,165.2813 Q838.2938,165 838.9344,164.4219 L838.9344,167.1406 Z " fill="#000000"/><text fill="#000000" font-family="sans-serif" font-size="14" lengthAdjust="spacing" textLength="55" x="854.05" y="166.3467">Caption</text><line style="stroke:#181818;stroke-width:0.5;" x1="803.5" x2="929.5" y1="177.5" y2="177.5"/><text fill="#000000" font-family="sans-serif" font-size="14" lengthAdjust="spacing" textLength="116" x="808.5" y="194.4951">parameters : list</text><text fill="#000000" font-family="sans-serif" font-size="14" lengthAdjust="spacing" textLength="58" x="808.5" y="210.792">text : str</text><text fill="#000000" font-family="sans-serif" font-size="14" lengthAdjust="spacing" textLength="58" x="808.5" y="227.0889">title : str</text><line style="stroke:#181818;stroke-width:0.5;" x1="803.5" x2="929.5" y1="234.3906" y2="234.3906"/></g><g id="elem_GMN27"><path d="M121.5,503.5 L121.5,558.8984 A0,0 0 0 0 121.5,558.8984 L375.5,558.8984 A0,0 0 0 0 375.5,558.8984 L375.5,513.5 L365.5,503.5 L257.38,503.5 L299.36,250.69 L249.38,503.5 L121.5,503.5 A0,0 0 0 0 121.5,503.5 " fill="#FEFFDD" style="stroke:#181818;stroke-width:0.5;"/><path d="M365.5,503.5 L365.5,513.5 L375.5,513.5 L365.5,503.5 " fill="#FEFFDD" style="stroke:#181818;stroke-width:0.5;"/><text fill="#000000" font-family="sans-serif" font-size="13" lengthAdjust="spacing" textLength="233" x="127.5" y="520.5669">Each Plotter has specific properties.</text><text fill="#000000" font-family="sans-serif" font-size="13" lengthAdjust="spacing" textLength="230" x="127.5" y="535.6997">See separate diagram for hierarchy</text><text fill="#000000" font-family="sans-serif" font-size="13" lengthAdjust="spacing" textLength="164" x="127.5" y="550.8325">of PlotProperties classes.</text></g><!--reverse link Plotter to SinglePlotter--><g id="link_Plotter_SinglePlotter"><path d="M555.7767,398.2124 C547.8667,422.3124 545.73,428.78 538.83,449.81 " fill="none" id="Plotter-backto-SinglePlotter" style="stroke:#181818;stroke-width:1.0;"/><polygon fill="none" points="561.39,381.11,550.0759,396.3413,561.4775,400.0835,561.39,381.11" style="stroke:#181818;stroke-width:1.0;"/></g><!--reverse link Plotter to MultiPlotter--><g id="link_Plotter_MultiPlotter"><path d="M676.5709,398.5068 C684.6909,429.0768 687.97,441.42 694.54,466.17 " fill="none" id="Plotter-backto-MultiPlotter" style="stroke:#181818;stroke-width:1.0;"/><polygon fill="none" points="671.95,381.11,670.772,400.0471,682.3698,396.9664,671.95,381.11" style="stroke:#181818;stroke-width:1.0;"/></g><!--reverse link MultiPlotter to MultiPlotter1D--><g id="link_MultiPlotter_MultiPlotter1D"><path d="M712.216,613.7893 C712.466,642.6393 712.61,658.87 712.87,688.68 " fill="none" id="MultiPlotter-backto-MultiPlotter1D" style="stroke:#181818;stroke-width:1.0;"/><polygon fill="none" points="712.06,595.79,706.2162,613.8413,718.2157,613.7373,712.06,595.79" style="stroke:#181818;stroke-width:1.0;"/></g><!--reverse link SinglePlotter1D to MultiDeviceDataPlotter1D--><g id="link_SinglePlotter1D_MultiDeviceDataPlotter1D"><path d="M114.5,853.11 C114.5,875.32 114.5,881.76 114.5,903.96 " fill="none" id="SinglePlotter1D-backto-MultiDeviceDataPlotter1D" style="stroke:#181818;stroke-width:1.0;"/><polygon fill="none" points="114.5,835.11,108.5,853.11,120.5,853.11,114.5,835.11" style="stroke:#181818;stroke-width:1.0;"/></g><!--reverse link MultiPlotter1D to MultiPlotter1DStacked--><g id="link_MultiPlotter1D_MultiPlotter1DStacked"><path d="M713.5,853.11 C713.5,886.91 713.5,907.87 713.5,936.25 " fill="none" id="MultiPlotter1D-backto-MultiPlotter1DStacked" style="stroke:#181818;stroke-width:1.0;"/><polygon fill="none" points="713.5,835.11,707.5,853.11,719.5,853.11,713.5,835.11" style="stroke:#181818;stroke-width:1.0;"/></g><!--reverse link SinglePlotter to SinglePlotter1D--><g id="link_SinglePlotter_SinglePlotter1D"><path d="M394.974,619.2521 C389.014,622.7921 398.48,616.94 392.5,620 C313.9,660.17 280,636.97 203.5,681 C197.47,684.47 191.49,688.4 185.66,692.62 " fill="none" id="SinglePlotter-backto-SinglePlotter1D" style="stroke:#181818;stroke-width:1.0;"/><polygon fill="none" points="410.45,610.06,391.91,614.0934,398.0381,624.4108,410.45,610.06" style="stroke:#181818;stroke-width:1.0;"/></g><!--reverse link SinglePlotter to SinglePlotter2D--><g id="link_SinglePlotter_SinglePlotter2D"><path d="M425.7442,625.2731 C404.9942,647.5931 394.71,658.64 373.95,680.95 " fill="none" id="SinglePlotter-backto-SinglePlotter2D" style="stroke:#181818;stroke-width:1.0;"/><polygon fill="none" points="438,612.09,421.3498,621.1879,430.1386,629.3584,438,612.09" style="stroke:#181818;stroke-width:1.0;"/></g><!--reverse link SinglePlotter to SinglePlotter2DStacked--><g id="link_SinglePlotter_SinglePlotter2DStacked"><path d="M512.5,630.09 C512.5,655.11 512.5,664.55 512.5,688.98 " fill="none" id="SinglePlotter-backto-SinglePlotter2DStacked" style="stroke:#181818;stroke-width:1.0;"/><polygon fill="none" points="512.5,612.09,506.5,630.09,518.5,630.09,512.5,612.09" style="stroke:#181818;stroke-width:1.0;"/></g><!--reverse link Plotter to CompositePlotter--><g id="link_Plotter_CompositePlotter"><path d="M729.1723,321.7202 C765.9523,365.4102 795.81,400.88 830.32,441.88 " fill="none" id="Plotter-backto-CompositePlotter" style="stroke:#181818;stroke-width:1.0;"/><polygon fill="none" points="717.58,307.95,724.5822,325.5843,733.7624,317.8561,717.58,307.95" style="stroke:#181818;stroke-width:1.0;"/></g><!--reverse link CompositePlotter to SingleCompositePlotter--><g id="link_CompositePlotter_SingleCompositePlotter"><path d="M910.0628,638.1853 C911.5628,666.7853 912.24,679.73 913.58,705.28 " fill="none" id="CompositePlotter-backto-SingleCompositePlotter" style="stroke:#181818;stroke-width:1.0;"/><polygon fill="none" points="909.12,620.21,904.071,638.4995,916.0545,637.871,909.12,620.21" style="stroke:#181818;stroke-width:1.0;"/></g><!--link Saver to PlotProperties--><!--link PlotProperties to Plotter--><g id="link_PlotProperties_Plotter"><path codeLine="140" d="M374.73,194 C418.9,194 465.97,194 515.35,194 " fill="none" id="PlotProperties-to-Plotter" style="stroke:#181818;stroke-width:1.0;"/><polygon fill="#181818" points="527.35,194,521.35,190,515.35,194,521.35,198,527.35,194" style="stroke:#181818;stroke-width:1.0;"/><text fill="#000000" font-family="sans-serif" font-size="13" lengthAdjust="spacing" textLength="66" x="418" y="187.0669">properties</text></g><!--reverse link Plotter to Caption--><g id="link_Plotter_Caption"><path codeLine="141" d="M729.54,194 C757.9,194 776.32,194 802.22,194 " fill="none" id="Plotter-backto-Caption" style="stroke:#181818;stroke-width:1.0;"/><polygon fill="#181818" points="717.54,194,723.54,198,729.54,194,723.54,190,717.54,194" style="stroke:#181818;stroke-width:1.0;"/><text fill="#000000" font-family="sans-serif" font-size="13" lengthAdjust="spacing" textLength="48" x="736" y="187.0669">caption</text></g><!--SRC=[fLR1ZjiW4BtxAz2UdDMcKdlCePTkZwrMIczLPH4O9wWO493Tf5N_lGF1n3XEDjdDmJB3mBptPZmJ9gbpvEv9Qk_1tf6_5I5KAUsf5reviY1IE1-Ck_Y0OFgk5VpO6q0BeoOuXZVTTQ0yRZjlSSt1CIlYRhQrOdruRYsKzxH2Wg8TP5T9Lo2FArY3ukMHmjrGYqka4F1nmG9aOxK1wmKuN3Y_bqVtH17g8zTPC1iZ1QCh2JMddiuY3OdNDaU_MYWEkx1bKBGwl3Zw37Lus5drhwfOr7Gfr5f24fR0pYC1H_frq3c4A2a5YmC_Cau8oIrzmVjBnu8liu3ycWrcJzjzOu5fo-iCEqLw8AtLNPDM0_JVjjABAy2dwaWN3Efb2dK1CAat6V7ZOuvP08dLAQL-0Tvu9EqkopE0KuJs1xrEibrYUOHdmU0HTqvH5Sb5-uGY5xFMEoMSOu2l8Cjnbvwoty0dnUfHNI7FTCsUetjh5cvMluZswHOKJ4jjLzHU_G6z5ziu0QSGt_19lxaulkZEQ2VynQwJUdXkw-2QUAXizsUwD_PjV5bRmHikiDsxyfH9SQO_ExTT1OT6QbPEbv6wPscSRDmay3ixuZBqznXnCAlwa0-Nnb0MPG0mZeoq4uCShf__t0ZEGVtw77FsT9IlJ_5XtaOSHR0ak4UjCcClV9vvcKTvRoAK4diOi_Zo1wnkf52vuFO5M9o5G5QurXtHxHWgmTzNoZQvx3RK4MU0YLQmGKbyY9vB0E8WSC4xkQ1h94LQZQS4M6hPPX_TJiAGI2VSWf03eAeQESplCuB5i19xu_qyoxde_yZy1m00]--></g></svg>