<?xml version="1.0" encoding="us-ascii" standalone="no"?><svg xmlns="http://www.w3.org/2000/svg" xmlns:xlink="http://www.w3.org/1999/xlink" contentStyleType="text/css" height="602px" preserveAspectRatio="none" style="width:929px;height:602px;background:#FFFFFF;" version="1.1" viewBox="0 0 929 602" width="929px" zoomAndPan="magnify"><defs/><g><!--class PlotProperties--><g id="elem_PlotProperties"><rect codeLine="2" fill="#F1F1F1" height="48" id="PlotProperties" rx="2.5" ry="2.5" style="stroke:#181818;stroke-width:0.5;" width="130" x="472" y="7"/><ellipse cx="487" cy="23" fill="#ADD1B2" rx="11" ry="11" style="stroke:#181818;stroke-width:1.0;"/><path d="M489.9844,28.6406 Q489.4063,28.9375 488.7656,29.0781 Q488.125,29.2344 487.4219,29.2344 Q484.9063,29.2344 483.5781,27.5938 Q482.2656,25.9375 482.2656,22.8125 Q482.2656,19.6719 483.5781,18.0313 Q484.9063,16.375 487.4219,16.375 Q488.125,16.375 488.7656,16.5313 Q489.4219,16.6719 489.9844,16.9688 L489.9844,19.6875 Q489.3438,19.1094 488.75,18.8438 Q488.1563,18.5781 487.5313,18.5781 Q486.1875,18.5781 485.5,19.6406 Q484.8125,20.7031 484.8125,22.8125 Q484.8125,24.9063 485.5,25.9844 Q486.1875,27.0469 487.5313,27.0469 Q488.1563,27.0469 488.75,26.7813 Q489.3438,26.5 489.9844,25.9219 L489.9844,28.6406 Z " fill="#000000"/><text fill="#000000" font-family="sans-serif" font-size="14" lengthAdjust="spacing" textLength="98" x="501" y="27.8467">PlotProperties</text><line style="stroke:#181818;stroke-width:0.5;" x1="473" x2="601" y1="39" y2="39"/><line style="stroke:#181818;stroke-width:0.5;" x1="473" x2="601" y1="47" y2="47"/></g><!--class SinglePlotProperties--><g id="elem_SinglePlotProperties"><rect codeLine="5" fill="#F1F1F1" height="48" id="SinglePlotProperties" rx="2.5" ry="2.5" style="stroke:#181818;stroke-width:0.5;" width="174" x="246" y="115"/><ellipse cx="261" cy="131" fill="#ADD1B2" rx="11" ry="11" style="stroke:#181818;stroke-width:1.0;"/><path d="M263.9844,136.6406 Q263.4063,136.9375 262.7656,137.0781 Q262.125,137.2344 261.4219,137.2344 Q258.9063,137.2344 257.5781,135.5938 Q256.2656,133.9375 256.2656,130.8125 Q256.2656,127.6719 257.5781,126.0313 Q258.9063,124.375 261.4219,124.375 Q262.125,124.375 262.7656,124.5313 Q263.4219,124.6719 263.9844,124.9688 L263.9844,127.6875 Q263.3438,127.1094 262.75,126.8438 Q262.1563,126.5781 261.5313,126.5781 Q260.1875,126.5781 259.5,127.6406 Q258.8125,128.7031 258.8125,130.8125 Q258.8125,132.9063 259.5,133.9844 Q260.1875,135.0469 261.5313,135.0469 Q262.1563,135.0469 262.75,134.7813 Q263.3438,134.5 263.9844,133.9219 L263.9844,136.6406 Z " fill="#000000"/><text fill="#000000" font-family="sans-serif" font-size="14" lengthAdjust="spacing" textLength="142" x="275" y="135.8467">SinglePlotProperties</text><line style="stroke:#181818;stroke-width:0.5;" x1="247" x2="419" y1="147" y2="147"/><line style="stroke:#181818;stroke-width:0.5;" x1="247" x2="419" y1="155" y2="155"/></g><!--class MultiPlotProperties--><g id="elem_MultiPlotProperties"><rect codeLine="8" fill="#F1F1F1" height="48" id="MultiPlotProperties" rx="2.5" ry="2.5" style="stroke:#181818;stroke-width:0.5;" width="164" x="455" y="115"/><ellipse cx="470" cy="131" fill="#ADD1B2" rx="11" ry="11" style="stroke:#181818;stroke-width:1.0;"/><path d="M472.9844,136.6406 Q472.4063,136.9375 471.7656,137.0781 Q471.125,137.2344 470.4219,137.2344 Q467.9063,137.2344 466.5781,135.5938 Q465.2656,133.9375 465.2656,130.8125 Q465.2656,127.6719 466.5781,126.0313 Q467.9063,124.375 470.4219,124.375 Q471.125,124.375 471.7656,124.5313 Q472.4219,124.6719 472.9844,124.9688 L472.9844,127.6875 Q472.3438,127.1094 471.75,126.8438 Q471.1563,126.5781 470.5313,126.5781 Q469.1875,126.5781 468.5,127.6406 Q467.8125,128.7031 467.8125,130.8125 Q467.8125,132.9063 468.5,133.9844 Q469.1875,135.0469 470.5313,135.0469 Q471.1563,135.0469 471.75,134.7813 Q472.3438,134.5 472.9844,133.9219 L472.9844,136.6406 Z " fill="#000000"/><text fill="#000000" font-family="sans-serif" font-size="14" lengthAdjust="spacing" textLength="132" x="484" y="135.8467">MultiPlotProperties</text><line style="stroke:#181818;stroke-width:0.5;" x1="456" x2="618" y1="147" y2="147"/><line style="stroke:#181818;stroke-width:0.5;" x1="456" x2="618" y1="155" y2="155"/></g><!--class CompositePlotProperties--><g id="elem_CompositePlotProperties"><rect codeLine="11" fill="#F1F1F1" height="48" id="CompositePlotProperties" rx="2.5" ry="2.5" style="stroke:#181818;stroke-width:0.5;" width="206" x="654" y="115"/><ellipse cx="669" cy="131" fill="#ADD1B2" rx="11" ry="11" style="stroke:#181818;stroke-width:1.0;"/><path d="M671.9844,136.6406 Q671.4063,136.9375 670.7656,137.0781 Q670.125,137.2344 669.4219,137.2344 Q666.9063,137.2344 665.5781,135.5938 Q664.2656,133.9375 664.2656,130.8125 Q664.2656,127.6719 665.5781,126.0313 Q666.9063,124.375 669.4219,124.375 Q670.125,124.375 670.7656,124.5313 Q671.4219,124.6719 671.9844,124.9688 L671.9844,127.6875 Q671.3438,127.1094 670.75,126.8438 Q670.1563,126.5781 669.5313,126.5781 Q668.1875,126.5781 667.5,127.6406 Q666.8125,128.7031 666.8125,130.8125 Q666.8125,132.9063 667.5,133.9844 Q668.1875,135.0469 669.5313,135.0469 Q670.1563,135.0469 670.75,134.7813 Q671.3438,134.5 671.9844,133.9219 L671.9844,136.6406 Z " fill="#000000"/><text fill="#000000" font-family="sans-serif" font-size="14" lengthAdjust="spacing" textLength="174" x="683" y="135.8467">CompositePlotProperties</text><line style="stroke:#181818;stroke-width:0.5;" x1="655" x2="859" y1="147" y2="147"/><line style="stroke:#181818;stroke-width:0.5;" x1="655" x2="859" y1="155" y2="155"/></g><!--class SinglePlot1DProperties--><g id="elem_SinglePlot1DProperties"><rect codeLine="14" fill="#F1F1F1" height="48" id="SinglePlot1DProperties" rx="2.5" ry="2.5" style="stroke:#181818;stroke-width:0.5;" width="194" x="236" y="223"/><ellipse cx="251" cy="239" fill="#ADD1B2" rx="11" ry="11" style="stroke:#181818;stroke-width:1.0;"/><path d="M253.9844,244.6406 Q253.4063,244.9375 252.7656,245.0781 Q252.125,245.2344 251.4219,245.2344 Q248.9063,245.2344 247.5781,243.5938 Q246.2656,241.9375 246.2656,238.8125 Q246.2656,235.6719 247.5781,234.0313 Q248.9063,232.375 251.4219,232.375 Q252.125,232.375 252.7656,232.5313 Q253.4219,232.6719 253.9844,232.9688 L253.9844,235.6875 Q253.3438,235.1094 252.75,234.8438 Q252.1563,234.5781 251.5313,234.5781 Q250.1875,234.5781 249.5,235.6406 Q248.8125,236.7031 248.8125,238.8125 Q248.8125,240.9063 249.5,241.9844 Q250.1875,243.0469 251.5313,243.0469 Q252.1563,243.0469 252.75,242.7813 Q253.3438,242.5 253.9844,241.9219 L253.9844,244.6406 Z " fill="#000000"/><text fill="#000000" font-family="sans-serif" font-size="14" lengthAdjust="spacing" textLength="162" x="265" y="243.8467">SinglePlot1DProperties</text><line style="stroke:#181818;stroke-width:0.5;" x1="237" x2="429" y1="255" y2="255"/><line style="stroke:#181818;stroke-width:0.5;" x1="237" x2="429" y1="263" y2="263"/></g><!--class SinglePlot2DProperties--><g id="elem_SinglePlot2DProperties"><rect codeLine="17" fill="#F1F1F1" height="48" id="SinglePlot2DProperties" rx="2.5" ry="2.5" style="stroke:#181818;stroke-width:0.5;" width="194" x="7" y="223"/><ellipse cx="22" cy="239" fill="#ADD1B2" rx="11" ry="11" style="stroke:#181818;stroke-width:1.0;"/><path d="M24.9844,244.6406 Q24.4063,244.9375 23.7656,245.0781 Q23.125,245.2344 22.4219,245.2344 Q19.9063,245.2344 18.5781,243.5938 Q17.2656,241.9375 17.2656,238.8125 Q17.2656,235.6719 18.5781,234.0313 Q19.9063,232.375 22.4219,232.375 Q23.125,232.375 23.7656,232.5313 Q24.4219,232.6719 24.9844,232.9688 L24.9844,235.6875 Q24.3438,235.1094 23.75,234.8438 Q23.1563,234.5781 22.5313,234.5781 Q21.1875,234.5781 20.5,235.6406 Q19.8125,236.7031 19.8125,238.8125 Q19.8125,240.9063 20.5,241.9844 Q21.1875,243.0469 22.5313,243.0469 Q23.1563,243.0469 23.75,242.7813 Q24.3438,242.5 24.9844,241.9219 L24.9844,244.6406 Z " fill="#000000"/><text fill="#000000" font-family="sans-serif" font-size="14" lengthAdjust="spacing" textLength="162" x="36" y="243.8467">SinglePlot2DProperties</text><line style="stroke:#181818;stroke-width:0.5;" x1="8" x2="200" y1="255" y2="255"/><line style="stroke:#181818;stroke-width:0.5;" x1="8" x2="200" y1="263" y2="263"/></g><!--class SinglePlot2DStackedProperties--><g id="elem_SinglePlot2DStackedProperties"><rect codeLine="20" fill="#F1F1F1" height="48" id="SinglePlot2DStackedProperties" rx="2.5" ry="2.5" style="stroke:#181818;stroke-width:0.5;" width="251" x="431.5" y="331"/><ellipse cx="446.5" cy="347" fill="#ADD1B2" rx="11" ry="11" style="stroke:#181818;stroke-width:1.0;"/><path d="M449.4844,352.6406 Q448.9063,352.9375 448.2656,353.0781 Q447.625,353.2344 446.9219,353.2344 Q444.4063,353.2344 443.0781,351.5938 Q441.7656,349.9375 441.7656,346.8125 Q441.7656,343.6719 443.0781,342.0313 Q444.4063,340.375 446.9219,340.375 Q447.625,340.375 448.2656,340.5313 Q448.9219,340.6719 449.4844,340.9688 L449.4844,343.6875 Q448.8438,343.1094 448.25,342.8438 Q447.6563,342.5781 447.0313,342.5781 Q445.6875,342.5781 445,343.6406 Q444.3125,344.7031 444.3125,346.8125 Q444.3125,348.9063 445,349.9844 Q445.6875,351.0469 447.0313,351.0469 Q447.6563,351.0469 448.25,350.7813 Q448.8438,350.5 449.4844,349.9219 L449.4844,352.6406 Z " fill="#000000"/><text fill="#000000" font-family="sans-serif" font-size="14" lengthAdjust="spacing" textLength="219" x="460.5" y="351.8467">SinglePlot2DStackedProperties</text><line style="stroke:#181818;stroke-width:0.5;" x1="432.5" x2="681.5" y1="363" y2="363"/><line style="stroke:#181818;stroke-width:0.5;" x1="432.5" x2="681.5" y1="371" y2="371"/></g><!--class MultiPlot1DProperties--><g id="elem_MultiPlot1DProperties"><rect codeLine="23" fill="#F1F1F1" height="48" id="MultiPlot1DProperties" rx="2.5" ry="2.5" style="stroke:#181818;stroke-width:0.5;" width="184" x="465" y="223"/><ellipse cx="480" cy="239" fill="#ADD1B2" rx="11" ry="11" style="stroke:#181818;stroke-width:1.0;"/><path d="M482.9844,244.6406 Q482.4063,244.9375 481.7656,245.0781 Q481.125,245.2344 480.4219,245.2344 Q477.9063,245.2344 476.5781,243.5938 Q475.2656,241.9375 475.2656,238.8125 Q475.2656,235.6719 476.5781,234.0313 Q477.9063,232.375 480.4219,232.375 Q481.125,232.375 481.7656,232.5313 Q482.4219,232.6719 482.9844,232.9688 L482.9844,235.6875 Q482.3438,235.1094 481.75,234.8438 Q481.1563,234.5781 480.5313,234.5781 Q479.1875,234.5781 478.5,235.6406 Q477.8125,236.7031 477.8125,238.8125 Q477.8125,240.9063 478.5,241.9844 Q479.1875,243.0469 480.5313,243.0469 Q481.1563,243.0469 481.75,242.7813 Q482.3438,242.5 482.9844,241.9219 L482.9844,244.6406 Z " fill="#000000"/><text fill="#000000" font-family="sans-serif" font-size="14" lengthAdjust="spacing" textLength="152" x="494" y="243.8467">MultiPlot1DProperties</text><line style="stroke:#181818;stroke-width:0.5;" x1="466" x2="648" y1="255" y2="255"/><line style="stroke:#181818;stroke-width:0.5;" x1="466" x2="648" y1="263" y2="263"/></g><!--class AxesProperties--><g id="elem_AxesProperties"><rect codeLine="26" fill="#F1F1F1" height="48" id="AxesProperties" rx="2.5" ry="2.5" style="stroke:#181818;stroke-width:0.5;" width="138" x="305" y="439"/><ellipse cx="320" cy="455" fill="#ADD1B2" rx="11" ry="11" style="stroke:#181818;stroke-width:1.0;"/><path d="M322.9844,460.6406 Q322.4063,460.9375 321.7656,461.0781 Q321.125,461.2344 320.4219,461.2344 Q317.9063,461.2344 316.5781,459.5938 Q315.2656,457.9375 315.2656,454.8125 Q315.2656,451.6719 316.5781,450.0313 Q317.9063,448.375 320.4219,448.375 Q321.125,448.375 321.7656,448.5313 Q322.4219,448.6719 322.9844,448.9688 L322.9844,451.6875 Q322.3438,451.1094 321.75,450.8438 Q321.1563,450.5781 320.5313,450.5781 Q319.1875,450.5781 318.5,451.6406 Q317.8125,452.7031 317.8125,454.8125 Q317.8125,456.9063 318.5,457.9844 Q319.1875,459.0469 320.5313,459.0469 Q321.1563,459.0469 321.75,458.7813 Q322.3438,458.5 322.9844,457.9219 L322.9844,460.6406 Z " fill="#000000"/><text fill="#000000" font-family="sans-serif" font-size="14" lengthAdjust="spacing" textLength="106" x="334" y="459.8467">AxesProperties</text><line style="stroke:#181818;stroke-width:0.5;" x1="306" x2="442" y1="471" y2="471"/><line style="stroke:#181818;stroke-width:0.5;" x1="306" x2="442" y1="479" y2="479"/></g><!--class ColorbarProperties--><g id="elem_ColorbarProperties"><rect codeLine="28" fill="#F1F1F1" height="48" id="ColorbarProperties" rx="2.5" ry="2.5" style="stroke:#181818;stroke-width:0.5;" width="166" x="297" y="547"/><ellipse cx="312" cy="563" fill="#ADD1B2" rx="11" ry="11" style="stroke:#181818;stroke-width:1.0;"/><path d="M314.9844,568.6406 Q314.4063,568.9375 313.7656,569.0781 Q313.125,569.2344 312.4219,569.2344 Q309.9063,569.2344 308.5781,567.5938 Q307.2656,565.9375 307.2656,562.8125 Q307.2656,559.6719 308.5781,558.0313 Q309.9063,556.375 312.4219,556.375 Q313.125,556.375 313.7656,556.5313 Q314.4219,556.6719 314.9844,556.9688 L314.9844,559.6875 Q314.3438,559.1094 313.75,558.8438 Q313.1563,558.5781 312.5313,558.5781 Q311.1875,558.5781 310.5,559.6406 Q309.8125,560.7031 309.8125,562.8125 Q309.8125,564.9063 310.5,565.9844 Q311.1875,567.0469 312.5313,567.0469 Q313.1563,567.0469 313.75,566.7813 Q314.3438,566.5 314.9844,565.9219 L314.9844,568.6406 Z " fill="#000000"/><text fill="#000000" font-family="sans-serif" font-size="14" lengthAdjust="spacing" textLength="134" x="326" y="567.8467">ColorbarProperties</text><line style="stroke:#181818;stroke-width:0.5;" x1="298" x2="462" y1="579" y2="579"/><line style="stroke:#181818;stroke-width:0.5;" x1="298" x2="462" y1="587" y2="587"/></g><!--class FigureProperties--><g id="elem_FigureProperties"><rect codeLine="30" fill="#F1F1F1" height="48" id="FigureProperties" rx="2.5" ry="2.5" style="stroke:#181818;stroke-width:0.5;" width="149" x="120.5" y="439"/><ellipse cx="135.5" cy="455" fill="#ADD1B2" rx="11" ry="11" style="stroke:#181818;stroke-width:1.0;"/><path d="M138.4844,460.6406 Q137.9063,460.9375 137.2656,461.0781 Q136.625,461.2344 135.9219,461.2344 Q133.4063,461.2344 132.0781,459.5938 Q130.7656,457.9375 130.7656,454.8125 Q130.7656,451.6719 132.0781,450.0313 Q133.4063,448.375 135.9219,448.375 Q136.625,448.375 137.2656,448.5313 Q137.9219,448.6719 138.4844,448.9688 L138.4844,451.6875 Q137.8438,451.1094 137.25,450.8438 Q136.6563,450.5781 136.0313,450.5781 Q134.6875,450.5781 134,451.6406 Q133.3125,452.7031 133.3125,454.8125 Q133.3125,456.9063 134,457.9844 Q134.6875,459.0469 136.0313,459.0469 Q136.6563,459.0469 137.25,458.7813 Q137.8438,458.5 138.4844,457.9219 L138.4844,460.6406 Z " fill="#000000"/><text fill="#000000" font-family="sans-serif" font-size="14" lengthAdjust="spacing" textLength="117" x="149.5" y="459.8467">FigureProperties</text><line style="stroke:#181818;stroke-width:0.5;" x1="121.5" x2="268.5" y1="471" y2="471"/><line style="stroke:#181818;stroke-width:0.5;" x1="121.5" x2="268.5" y1="479" y2="479"/></g><!--class GridProperties--><g id="elem_GridProperties"><rect codeLine="32" fill="#F1F1F1" height="48" id="GridProperties" rx="2.5" ry="2.5" style="stroke:#181818;stroke-width:0.5;" width="134" x="128" y="547"/><ellipse cx="143" cy="563" fill="#ADD1B2" rx="11" ry="11" style="stroke:#181818;stroke-width:1.0;"/><path d="M145.9844,568.6406 Q145.4063,568.9375 144.7656,569.0781 Q144.125,569.2344 143.4219,569.2344 Q140.9063,569.2344 139.5781,567.5938 Q138.2656,565.9375 138.2656,562.8125 Q138.2656,559.6719 139.5781,558.0313 Q140.9063,556.375 143.4219,556.375 Q144.125,556.375 144.7656,556.5313 Q145.4219,556.6719 145.9844,556.9688 L145.9844,559.6875 Q145.3438,559.1094 144.75,558.8438 Q144.1563,558.5781 143.5313,558.5781 Q142.1875,558.5781 141.5,559.6406 Q140.8125,560.7031 140.8125,562.8125 Q140.8125,564.9063 141.5,565.9844 Q142.1875,567.0469 143.5313,567.0469 Q144.1563,567.0469 144.75,566.7813 Q145.3438,566.5 145.9844,565.9219 L145.9844,568.6406 Z " fill="#000000"/><text fill="#000000" font-family="sans-serif" font-size="14" lengthAdjust="spacing" textLength="102" x="157" y="567.8467">GridProperties</text><line style="stroke:#181818;stroke-width:0.5;" x1="129" x2="261" y1="579" y2="579"/><line style="stroke:#181818;stroke-width:0.5;" x1="129" x2="261" y1="587" y2="587"/></g><!--class LegendProperties--><g id="elem_LegendProperties"><rect codeLine="34" fill="#F1F1F1" height="48" id="LegendProperties" rx="2.5" ry="2.5" style="stroke:#181818;stroke-width:0.5;" width="157" x="478.5" y="439"/><ellipse cx="493.5" cy="455" fill="#ADD1B2" rx="11" ry="11" style="stroke:#181818;stroke-width:1.0;"/><path d="M496.4844,460.6406 Q495.9063,460.9375 495.2656,461.0781 Q494.625,461.2344 493.9219,461.2344 Q491.4063,461.2344 490.0781,459.5938 Q488.7656,457.9375 488.7656,454.8125 Q488.7656,451.6719 490.0781,450.0313 Q491.4063,448.375 493.9219,448.375 Q494.625,448.375 495.2656,448.5313 Q495.9219,448.6719 496.4844,448.9688 L496.4844,451.6875 Q495.8438,451.1094 495.25,450.8438 Q494.6563,450.5781 494.0313,450.5781 Q492.6875,450.5781 492,451.6406 Q491.3125,452.7031 491.3125,454.8125 Q491.3125,456.9063 492,457.9844 Q492.6875,459.0469 494.0313,459.0469 Q494.6563,459.0469 495.25,458.7813 Q495.8438,458.5 496.4844,457.9219 L496.4844,460.6406 Z " fill="#000000"/><text fill="#000000" font-family="sans-serif" font-size="14" lengthAdjust="spacing" textLength="125" x="507.5" y="459.8467">LegendProperties</text><line style="stroke:#181818;stroke-width:0.5;" x1="479.5" x2="634.5" y1="471" y2="471"/><line style="stroke:#181818;stroke-width:0.5;" x1="479.5" x2="634.5" y1="479" y2="479"/></g><!--class DrawingProperties--><g id="elem_DrawingProperties"><rect codeLine="37" fill="#F1F1F1" height="48" id="DrawingProperties" rx="2.5" ry="2.5" style="stroke:#181818;stroke-width:0.5;" width="163" x="670.5" y="439"/><ellipse cx="685.5" cy="455" fill="#ADD1B2" rx="11" ry="11" style="stroke:#181818;stroke-width:1.0;"/><path d="M688.4844,460.6406 Q687.9063,460.9375 687.2656,461.0781 Q686.625,461.2344 685.9219,461.2344 Q683.4063,461.2344 682.0781,459.5938 Q680.7656,457.9375 680.7656,454.8125 Q680.7656,451.6719 682.0781,450.0313 Q683.4063,448.375 685.9219,448.375 Q686.625,448.375 687.2656,448.5313 Q687.9219,448.6719 688.4844,448.9688 L688.4844,451.6875 Q687.8438,451.1094 687.25,450.8438 Q686.6563,450.5781 686.0313,450.5781 Q684.6875,450.5781 684,451.6406 Q683.3125,452.7031 683.3125,454.8125 Q683.3125,456.9063 684,457.9844 Q684.6875,459.0469 686.0313,459.0469 Q686.6563,459.0469 687.25,458.7813 Q687.8438,458.5 688.4844,457.9219 L688.4844,460.6406 Z " fill="#000000"/><text fill="#000000" font-family="sans-serif" font-size="14" lengthAdjust="spacing" textLength="131" x="699.5" y="459.8467">DrawingProperties</text><line style="stroke:#181818;stroke-width:0.5;" x1="671.5" x2="832.5" y1="471" y2="471"/><line style="stroke:#181818;stroke-width:0.5;" x1="671.5" x2="832.5" y1="479" y2="479"/></g><!--class LineProperties--><g id="elem_LineProperties"><rect codeLine="39" fill="#F1F1F1" height="48" id="LineProperties" rx="2.5" ry="2.5" style="stroke:#181818;stroke-width:0.5;" width="134" x="594" y="547"/><ellipse cx="609" cy="563" fill="#ADD1B2" rx="11" ry="11" style="stroke:#181818;stroke-width:1.0;"/><path d="M611.9844,568.6406 Q611.4063,568.9375 610.7656,569.0781 Q610.125,569.2344 609.4219,569.2344 Q606.9063,569.2344 605.5781,567.5938 Q604.2656,565.9375 604.2656,562.8125 Q604.2656,559.6719 605.5781,558.0313 Q606.9063,556.375 609.4219,556.375 Q610.125,556.375 610.7656,556.5313 Q611.4219,556.6719 611.9844,556.9688 L611.9844,559.6875 Q611.3438,559.1094 610.75,558.8438 Q610.1563,558.5781 609.5313,558.5781 Q608.1875,558.5781 607.5,559.6406 Q606.8125,560.7031 606.8125,562.8125 Q606.8125,564.9063 607.5,565.9844 Q608.1875,567.0469 609.5313,567.0469 Q610.1563,567.0469 610.75,566.7813 Q611.3438,566.5 611.9844,565.9219 L611.9844,568.6406 Z " fill="#000000"/><text fill="#000000" font-family="sans-serif" font-size="14" lengthAdjust="spacing" textLength="102" x="623" y="567.8467">LineProperties</text><line style="stroke:#181818;stroke-width:0.5;" x1="595" x2="727" y1="579" y2="579"/><line style="stroke:#181818;stroke-width:0.5;" x1="595" x2="727" y1="587" y2="587"/></g><!--class SurfaceProperties--><g id="elem_SurfaceProperties"><rect codeLine="41" fill="#F1F1F1" height="48" id="SurfaceProperties" rx="2.5" ry="2.5" style="stroke:#181818;stroke-width:0.5;" width="159" x="763.5" y="547"/><ellipse cx="778.5" cy="563" fill="#ADD1B2" rx="11" ry="11" style="stroke:#181818;stroke-width:1.0;"/><path d="M781.4844,568.6406 Q780.9063,568.9375 780.2656,569.0781 Q779.625,569.2344 778.9219,569.2344 Q776.4063,569.2344 775.0781,567.5938 Q773.7656,565.9375 773.7656,562.8125 Q773.7656,559.6719 775.0781,558.0313 Q776.4063,556.375 778.9219,556.375 Q779.625,556.375 780.2656,556.5313 Q780.9219,556.6719 781.4844,556.9688 L781.4844,559.6875 Q780.8438,559.1094 780.25,558.8438 Q779.6563,558.5781 779.0313,558.5781 Q777.6875,558.5781 777,559.6406 Q776.3125,560.7031 776.3125,562.8125 Q776.3125,564.9063 777,565.9844 Q777.6875,567.0469 779.0313,567.0469 Q779.6563,567.0469 780.25,566.7813 Q780.8438,566.5 781.4844,565.9219 L781.4844,568.6406 Z " fill="#000000"/><text fill="#000000" font-family="sans-serif" font-size="14" lengthAdjust="spacing" textLength="127" x="792.5" y="567.8467">SurfaceProperties</text><line style="stroke:#181818;stroke-width:0.5;" x1="764.5" x2="921.5" y1="579" y2="579"/><line style="stroke:#181818;stroke-width:0.5;" x1="764.5" x2="921.5" y1="587" y2="587"/></g><!--reverse link PlotProperties to SinglePlotProperties--><g id="link_PlotProperties_SinglePlotProperties"><path d="M476.7668,63.298 C442.6568,81.018 411.7,97.11 377.53,114.86 " fill="none" id="PlotProperties-backto-SinglePlotProperties" style="stroke:#181818;stroke-width:1.0;"/><polygon fill="none" points="492.74,55,474.0008,57.9736,479.5328,68.6224,492.74,55" style="stroke:#181818;stroke-width:1.0;"/></g><!--reverse link PlotProperties to MultiPlotProperties--><g id="link_PlotProperties_MultiPlotProperties"><path d="M537,73 C537,90.66 537,96.94 537,114.68 " fill="none" id="PlotProperties-backto-MultiPlotProperties" style="stroke:#181818;stroke-width:1.0;"/><polygon fill="none" points="537,55,531,73,543,73,537,55" style="stroke:#181818;stroke-width:1.0;"/></g><!--reverse link PlotProperties to CompositePlotProperties--><g id="link_PlotProperties_CompositePlotProperties"><path d="M600.9553,62.8144 C637.7253,80.5344 672.13,97.11 708.98,114.86 " fill="none" id="PlotProperties-backto-CompositePlotProperties" style="stroke:#181818;stroke-width:1.0;"/><polygon fill="none" points="584.74,55,598.3505,68.2195,603.5601,57.4093,584.74,55" style="stroke:#181818;stroke-width:1.0;"/></g><!--reverse link SinglePlotProperties to SinglePlot1DProperties--><g id="link_SinglePlotProperties_SinglePlot1DProperties"><path d="M333,181 C333,198.66 333,204.94 333,222.68 " fill="none" id="SinglePlotProperties-backto-SinglePlot1DProperties" style="stroke:#181818;stroke-width:1.0;"/><polygon fill="none" points="333,163,327,181,339,181,333,163" style="stroke:#181818;stroke-width:1.0;"/></g><!--reverse link SinglePlotProperties to SinglePlot2DProperties--><g id="link_SinglePlotProperties_SinglePlot2DProperties"><path d="M266.9752,170.5614 C228.6952,188.2814 192.34,205.11 153.99,222.86 " fill="none" id="SinglePlotProperties-backto-SinglePlot2DProperties" style="stroke:#181818;stroke-width:1.0;"/><polygon fill="none" points="283.31,163,264.4548,165.1165,269.4957,176.0064,283.31,163" style="stroke:#181818;stroke-width:1.0;"/></g><!--reverse link MultiPlot1DProperties to SinglePlot2DStackedProperties--><g id="link_MultiPlot1DProperties_SinglePlot2DStackedProperties"><path d="M557,289 C557,306.66 557,312.94 557,330.68 " fill="none" id="MultiPlot1DProperties-backto-SinglePlot2DStackedProperties" style="stroke:#181818;stroke-width:1.0;"/><polygon fill="none" points="557,271,551,289,563,289,557,271" style="stroke:#181818;stroke-width:1.0;"/></g><!--reverse link MultiPlotProperties to MultiPlot1DProperties--><g id="link_MultiPlotProperties_MultiPlot1DProperties"><path d="M544.6753,180.6883 C548.0053,198.3483 549.25,204.94 552.6,222.68 " fill="none" id="MultiPlotProperties-backto-MultiPlot1DProperties" style="stroke:#181818;stroke-width:1.0;"/><polygon fill="none" points="541.34,163,538.7792,181.8001,550.5714,179.5765,541.34,163" style="stroke:#181818;stroke-width:1.0;"/></g><!--reverse link DrawingProperties to LineProperties--><g id="link_DrawingProperties_LineProperties"><path d="M720.53,500.6617 C705.38,518.3217 696.25,528.94 681.02,546.68 " fill="none" id="DrawingProperties-backto-LineProperties" style="stroke:#181818;stroke-width:1.0;"/><polygon fill="none" points="732.25,487,715.9761,496.755,725.0839,504.5684,732.25,487" style="stroke:#181818;stroke-width:1.0;"/></g><!--reverse link DrawingProperties to SurfaceProperties--><g id="link_DrawingProperties_SurfaceProperties"><path d="M783.47,500.6617 C798.62,518.3217 807.75,528.94 822.98,546.68 " fill="none" id="DrawingProperties-backto-SurfaceProperties" style="stroke:#181818;stroke-width:1.0;"/><polygon fill="none" points="771.75,487,778.9161,504.5684,788.0239,496.755,771.75,487" style="stroke:#181818;stroke-width:1.0;"/></g><!--link SinglePlotProperties to MultiPlotProperties--><!--link MultiPlotProperties to CompositePlotProperties--><!--link FigureProperties to AxesProperties--><!--link AxesProperties to LegendProperties--><!--link SinglePlot2DStackedProperties to LegendProperties--><!--link LegendProperties to DrawingProperties--><!--link FigureProperties to GridProperties--><!--link GridProperties to ColorbarProperties--><!--SRC=[bP912i8m44NtSufUm8KUG12BRXGANOgBc8mr69kIf5WGxsuHh6aoBUqo-NcJ-N-6AsPjaYdjCgChD4wYJLxm1k1V9PTbeJ3GiN5OYZ7iM2idPrDR_QYqbMx-V_ysboa1aYv8V3KL7w1pn_WT1L6aYwJN8PKPQO58r6Ct3TgWwYzIfSs56LBSoQ8sI4fx8mKf7B1e-w4Tf8OzsoneJfP8s1f3yjfS6PzE0JdcnUacXS3olAOo16fJFMHW9G6Yx3oeFmq8XkCz3CE4yLNgo4MC9Wb4LzvFKM8Z1jhgmVWXEFS22XVi0m00]--></g></svg>